<svg width="20" height="20" viewBox="0 0 20 20" fill="none" xmlns="http://www.w3.org/2000/svg">
<g id="&#236;&#149;&#140;&#235;&#166;&#188;_2">
<path id="Union" fill-rule="evenodd" clip-rule="evenodd" d="M13.82 15H16.6667C17.1269 15 17.5 14.6269 17.5 14.1667C17.5 13.7064 17.1269 13.3333 16.6667 13.3333V9.16667C16.6667 5.48477 13.6819 2.5 10 2.5C6.3181 2.5 3.33333 5.48477 3.33333 9.16667V13.3333C2.8731 13.3333 2.5 13.7064 2.5 14.1667C2.5 14.6269 2.8731 15 3.33333 15H6.18004C6.823 16.4716 8.2914 17.5 10 17.5C11.7086 17.5 13.177 16.4716 13.82 15ZM15 13.3333V9.16667C15 6.40524 12.7614 4.16667 10 4.16667C7.23858 4.16667 5 6.40524 5 9.16667V13.3333H15Z" fill="#C8D5FA"/>
</g>
</svg>
