<svg width="24" height="24" viewBox="0 0 24 24" fill="none" xmlns="http://www.w3.org/2000/svg">
<g id="&#235;&#139;&#171;&#234;&#184;&#176;">
<path id="Union" fill-rule="evenodd" clip-rule="evenodd" d="M20.7071 4.70711C21.0977 4.31658 21.0977 3.68342 20.7071 3.29289C20.3166 2.90237 19.6834 2.90237 19.2929 3.29289L11.9979 10.5879L4.70712 3.29679C4.31661 2.90625 3.68344 2.90624 3.29291 3.29675C2.90238 3.68727 2.90236 4.32043 3.29288 4.71096L10.5837 12.0021L3.29289 19.2929C2.90237 19.6834 2.90237 20.3166 3.29289 20.7071C3.68342 21.0976 4.31658 21.0976 4.70711 20.7071L11.9979 13.4164L19.2921 20.711C19.6826 21.1015 20.3158 21.1015 20.7063 20.711C21.0968 20.3205 21.0969 19.6873 20.7063 19.2968L13.4121 12.0022L20.7071 4.70711Z" fill="#767676"/>
</g>
</svg>
