<svg width="13" height="13" viewBox="0 0 13 13" fill="none" xmlns="http://www.w3.org/2000/svg">
<path id="Union" fill-rule="evenodd" clip-rule="evenodd" d="M7.1685 1.16667C7.1685 0.798477 6.87002 0.5 6.50183 0.5C6.13364 0.5 5.83516 0.798477 5.83516 1.16667V5.83258H1.16667C0.798477 5.83258 0.5 6.13106 0.5 6.49925C0.5 6.86744 0.798477 7.16591 1.16667 7.16591H5.83516V11.8333C5.83516 12.2015 6.13364 12.5 6.50183 12.5C6.87002 12.5 7.1685 12.2015 7.1685 11.8333V7.16591H11.8333C12.2015 7.16591 12.5 6.86744 12.5 6.49925C12.5 6.13106 12.2015 5.83258 11.8333 5.83258H7.1685V1.16667Z" fill="white"/>
</svg>
