<svg width="138" height="16" viewBox="0 0 138 16" fill="none" xmlns="http://www.w3.org/2000/svg">
<g id="_?&#235;&#141;&#137;&#236;&#148;&#160;??4" clip-path="url(#clip0_687_7186)">
<g id="Group">
<path id="Vector" d="M6.60227 0.432617L13.2246 15.5673H11.3457L9.45686 11.1032H3.76897L1.8801 15.5673H0L6.60227 0.432617ZM6.60227 4.26045L4.28502 9.62017H8.91826L6.60101 4.26045H6.60227Z" fill="white"/>
<path id="Vector_2" d="M22.8711 15.5664V1.00781H24.6009V13.9142H30.0996V15.5651H22.8711V15.5664Z" fill="white"/>
<path id="Vector_3" d="M48.3109 8.0495H54.3169V8.53675C54.3169 10.8302 53.6668 12.6401 52.3679 13.9654C51.069 15.2918 49.2954 15.9544 47.0483 15.9544C46.3656 15.9544 45.7143 15.8818 45.0943 15.7352C44.4743 15.5887 43.9031 15.377 43.3795 15.0989C42.1858 14.4426 41.2652 13.5357 40.6151 12.3796C39.965 11.2222 39.6406 9.9083 39.6406 8.43654C39.6406 7.22281 39.8348 6.12807 40.2218 5.14981C40.6101 4.17156 41.1951 3.3123 41.9767 2.56953C42.633 1.94701 43.3946 1.47604 44.2638 1.15789C45.1319 0.83974 46.0938 0.680664 47.1472 0.680664C48.5464 0.680664 49.7588 0.933682 50.7872 1.44097C51.8143 1.94826 52.666 2.71232 53.3424 3.73316L51.8907 4.89679C51.3671 4.01499 50.7145 3.35364 49.9317 2.91273C49.1488 2.47183 48.2407 2.25138 47.2074 2.25138C45.5164 2.25138 44.1448 2.8213 43.0902 3.96113C42.0368 5.10096 41.5095 6.59277 41.5095 8.43529C41.5095 10.1726 42.0443 11.5968 43.1152 12.7115C44.1862 13.8251 45.5502 14.3825 47.2074 14.3825C48.6653 14.3825 49.8803 13.9403 50.8511 13.0547C51.8218 12.1692 52.3604 11.0181 52.4669 9.59892H48.3109V8.04825V8.0495Z" fill="white"/>
<path id="Vector_4" d="M79.9212 8.31755C79.9212 9.35843 79.7283 10.3392 79.3438 11.2611C78.9593 12.183 78.3981 13.0009 77.6629 13.7174C76.9263 14.4338 76.0796 14.9849 75.1201 15.3732C74.1619 15.7615 73.1687 15.9544 72.1403 15.9544C71.1119 15.9544 70.1224 15.7603 69.1705 15.3732C68.2185 14.9862 67.3743 14.4338 66.6378 13.7174C65.895 12.9946 65.3301 12.1729 64.9418 11.2511C64.5535 10.3292 64.3594 9.35217 64.3594 8.31755C64.3594 7.28293 64.5535 6.29466 64.9418 5.36901C65.3301 4.44462 65.895 3.62043 66.6378 2.8977C67.368 2.18875 68.2098 1.64138 69.1655 1.25684C70.1212 0.872306 71.1119 0.680664 72.1403 0.680664C73.1687 0.680664 74.172 0.873559 75.1302 1.25684C76.0884 1.64138 76.9326 2.18875 77.6629 2.8977C78.3994 3.61417 78.9593 4.43335 79.3438 5.35899C79.7283 6.28338 79.9212 7.2704 79.9212 8.31755ZM72.1403 14.3236C72.9369 14.3236 73.6947 14.1733 74.4137 13.8714C75.1339 13.5695 75.7815 13.1312 76.3589 12.5537C76.9289 11.9838 77.3635 11.3375 77.6629 10.6147C77.961 9.89202 78.1113 9.1267 78.1113 8.31755C78.1113 7.50839 77.9597 6.72679 77.6578 5.99028C77.356 5.25503 76.9238 4.60495 76.3589 4.04129C75.7878 3.47138 75.1427 3.03674 74.4237 2.73863C73.7035 2.44052 72.9419 2.29146 72.1403 2.29146C71.3387 2.29146 70.5646 2.44052 69.8406 2.73863C69.1179 3.03674 68.4778 3.47138 67.9204 4.04129C67.3505 4.61747 66.9159 5.27131 66.6165 6.0003C66.3184 6.7293 66.1693 7.50213 66.1693 8.31755C66.1693 9.13297 66.3171 9.88826 66.6127 10.6047C66.9083 11.3212 67.3442 11.97 67.9217 12.5537C68.5054 13.1374 69.1542 13.5783 69.8669 13.8764C70.5796 14.1745 71.3387 14.3236 72.1416 14.3236H72.1403Z" fill="white"/>
<path id="Vector_5" d="M90.8926 15.5664V1.00781H92.6224V13.9142H98.1211V15.5651H90.8926V15.5664Z" fill="white"/>
<path id="Vector_6" d="M112.931 0.432617L119.553 15.5673H117.675L115.786 11.1032H110.098L108.209 15.5673H106.33L112.931 0.432617ZM112.931 4.26045L110.614 9.62017H115.247L112.93 4.26045H112.931Z" fill="white"/>
<path id="Vector_7" d="M129.198 15.5664V1.00781H132.23C133.297 1.00781 134.085 1.06293 134.591 1.1719C135.099 1.28087 135.535 1.46876 135.899 1.7343C136.362 2.07875 136.723 2.52091 136.977 3.06202C137.233 3.60187 137.361 4.19434 137.361 4.8369C137.361 5.60598 137.177 6.24854 136.808 6.76585C136.44 7.28316 135.905 7.6439 135.203 7.84932C136.064 7.98209 136.746 8.36788 137.246 9.00794C137.745 9.648 137.996 10.4547 137.996 11.4291C137.996 12.0128 137.889 12.569 137.678 13.1001C137.466 13.6299 137.17 14.0846 136.792 14.4629C136.381 14.8674 135.874 15.1518 135.27 15.3184C134.667 15.4837 133.653 15.5664 132.228 15.5664H129.195H129.198ZM130.889 2.50964V7.38211H132.232C133.464 7.38211 134.333 7.203 134.837 6.84476C135.34 6.48653 135.592 5.88405 135.592 5.03481C135.592 4.10039 135.359 3.4453 134.891 3.07079C134.424 2.69627 133.537 2.50838 132.23 2.50838H130.888L130.889 2.50964ZM130.889 8.7449V14.0545H132.232C133.153 14.0545 133.817 14.0182 134.226 13.9455C134.633 13.8729 134.96 13.7464 135.205 13.5673C135.503 13.3556 135.739 13.06 135.912 12.6817C136.084 12.3034 136.17 11.8863 136.17 11.4291C136.17 10.8993 136.067 10.4384 135.861 10.0476C135.656 9.65677 135.358 9.35114 134.967 9.1332C134.735 8.99416 134.466 8.89396 134.162 8.83509C133.856 8.77496 133.383 8.74615 132.74 8.74615H130.89L130.889 8.7449Z" fill="white"/>
</g>
</g>
<defs>
<clipPath id="clip0_687_7186">
<rect width="138" height="15.5218" fill="white" transform="translate(0 0.432617)"/>
</clipPath>
</defs>
</svg>
