<svg width="211" height="24" viewBox="0 0 211 24" fill="none" xmlns="http://www.w3.org/2000/svg">
<g id="Layer_1" clip-path="url(#clip0_1092_12580)">
<g id="Group">
<path id="Vector" d="M0 23.1347V0.880859H4.28453C7.45519 0.880859 9.68868 1.03977 10.985 1.35952C12.2813 1.67926 13.4163 2.21345 14.3919 2.96207C15.6728 3.94428 16.6426 5.2022 17.3033 6.732C17.9639 8.26179 18.2942 10.0252 18.2942 12.0221C18.2942 14.0191 17.9658 15.7633 17.3109 17.2893C16.6561 18.8153 15.6824 20.0675 14.3919 21.0516C13.4163 21.8021 12.3063 22.3363 11.0599 22.6541C9.81543 22.9739 7.87577 23.1328 5.24283 23.1328H0V23.1347ZM2.68287 20.6418H4.37479C7.11911 20.6418 9.02036 20.5231 10.0766 20.2838C11.1329 20.0464 12.0124 19.6386 12.7134 19.0604C13.6275 18.3002 14.3246 17.3199 14.8028 16.1195C15.281 14.919 15.5192 13.5424 15.5192 11.9934C15.5192 10.4445 15.283 9.06211 14.8105 7.88269C14.3381 6.70328 13.639 5.72681 12.7134 4.95713C12.0124 4.36933 11.1194 3.95194 10.0382 3.70304C8.95699 3.45413 7.06726 3.32968 4.37479 3.32968H2.68287V20.6418Z" fill="white"/>
<path id="Vector_2" d="M39.8125 23.1346V0L56.1402 17.7832V0.880734H58.6713V24L42.3437 6.41404V23.1327H39.8125V23.1346Z" fill="white"/>
<path id="Vector_3" d="M81.1816 23.1347V0.880859H92.9521V3.29713H83.8357V9.68054H92.9521V12.1428H83.8357V20.6706H92.9521V23.1328H81.1816V23.1347Z" fill="white"/>
<path id="Vector_4" d="M114.527 0.880859H117.21V14.7275C117.21 16.9772 117.69 18.6296 118.651 19.6826C119.611 20.7357 121.118 21.2641 123.171 21.2641C125.224 21.2641 126.732 20.7376 127.692 19.6826C128.652 18.6296 129.132 16.9772 129.132 14.7275V0.880859H131.831V14.7275C131.831 17.7373 131.112 19.989 129.674 21.4843C128.236 22.9796 126.067 23.7263 123.171 23.7263C120.275 23.7263 118.122 22.9796 116.684 21.4843C115.246 19.989 114.527 17.7373 114.527 14.7275V0.880859Z" fill="white"/>
<path id="Vector_5" d="M154.281 23.1347V0.880859H159.526C161.02 0.880859 162.115 0.965103 162.812 1.13168C163.507 1.29825 164.12 1.58545 164.65 1.99135C165.31 2.5083 165.823 3.19949 166.19 4.06682C166.557 4.93224 166.739 5.89338 166.739 6.94644C166.739 8.77109 166.228 10.1554 165.207 11.1031C164.185 12.0509 162.689 12.5238 160.717 12.5238H160.244L168.767 23.1328H165.399L157.258 12.5238H156.878V23.1328H154.285L154.281 23.1347ZM156.872 3.11524V10.5632H158.9C160.974 10.5632 162.361 10.2971 163.062 9.76478C163.763 9.23251 164.114 8.30391 164.114 6.97515C164.114 5.54683 163.753 4.54548 163.031 3.973C162.309 3.40052 160.932 3.11333 158.9 3.11333H156.872V3.11524Z" fill="white"/>
<path id="Vector_6" d="M211 12.0525C211 13.6435 210.705 15.1427 210.115 16.5519C209.525 17.961 208.665 19.2113 207.538 20.3065C206.409 21.4016 205.11 22.2441 203.639 22.8376C202.17 23.4312 200.647 23.726 199.07 23.726C197.494 23.726 195.977 23.4292 194.517 22.8376C193.058 22.246 191.763 21.4016 190.634 20.3065C189.495 19.2017 188.629 17.9457 188.034 16.5365C187.438 15.1274 187.141 13.634 187.141 12.0525C187.141 10.471 187.438 8.96032 188.034 7.5454C188.629 6.1324 189.495 4.87256 190.634 3.76782C191.754 2.68413 193.044 1.84743 194.509 1.25964C195.975 0.671846 197.494 0.378906 199.07 0.378906C200.647 0.378906 202.185 0.673761 203.655 1.25964C205.124 1.84743 206.418 2.68413 207.538 3.76782C208.667 4.86299 209.525 6.11517 210.115 7.53008C210.705 8.94309 211 10.4518 211 12.0525ZM199.072 21.2332C200.294 21.2332 201.456 21.0034 202.558 20.542C203.662 20.0805 204.655 19.4104 205.54 18.5278C206.414 17.6566 207.081 16.6687 207.54 15.5639C207.997 14.4592 208.227 13.2893 208.227 12.0525C208.227 10.8156 207.995 9.62087 207.532 8.49506C207.069 7.37117 206.407 6.37747 205.54 5.51588C204.665 4.64472 203.676 3.98034 202.573 3.52466C201.469 3.06897 200.301 2.84113 199.072 2.84113C197.843 2.84113 196.656 3.06897 195.546 3.52466C194.438 3.98034 193.457 4.64472 192.602 5.51588C191.729 6.39662 191.062 7.39606 190.603 8.51038C190.146 9.6247 189.918 10.806 189.918 12.0525C189.918 13.2989 190.144 14.4534 190.597 15.5486C191.051 16.6438 191.719 17.6355 192.604 18.5278C193.499 19.42 194.494 20.0939 195.587 20.5496C196.68 21.0053 197.843 21.2332 199.074 21.2332H199.072Z" fill="white"/>
</g>
</g>
<defs>
<clipPath id="clip0_1092_12580">
<rect width="211" height="24" fill="white"/>
</clipPath>
</defs>
</svg>
