<svg width="114" height="14" viewBox="0 0 114 14" fill="none" xmlns="http://www.w3.org/2000/svg">
<g id="_?&#235;&#141;&#137;&#236;&#148;&#160;??4" clip-path="url(#clip0_694_9973)">
<g id="Group">
<path id="Vector" d="M0 13.2387V0.773438H2.31486C4.02792 0.773438 5.23464 0.862452 5.93501 1.04155C6.63539 1.22066 7.2486 1.51988 7.7757 1.93921C8.46777 2.48939 8.99175 3.194 9.34869 4.0509C9.70562 4.9078 9.88408 5.89555 9.88408 7.01413C9.88408 8.13272 9.70665 9.10974 9.35284 9.9645C8.99902 10.8193 8.47296 11.5206 7.7757 12.0719C7.2486 12.4923 6.64888 12.7915 5.97548 12.9696C5.30312 13.1487 4.25516 13.2377 2.83262 13.2377H0V13.2387ZM1.44951 11.8424H2.36363C3.84635 11.8424 4.87356 11.7759 5.44423 11.6418C6.01491 11.5089 6.49012 11.2804 6.86884 10.9565C7.36274 10.5308 7.73938 9.98166 7.99774 9.30922C8.2561 8.63678 8.38476 7.86567 8.38476 6.99805C8.38476 6.13042 8.25714 5.3561 8.00189 4.69546C7.74665 4.03482 7.36896 3.48786 6.86884 3.05672C6.49012 2.72748 6.00765 2.49368 5.42348 2.35426C4.83828 2.21484 3.81833 2.14512 2.36363 2.14512H1.44951V11.8424Z" fill="white"/>
<path id="Vector_2" d="M21.5107 13.2379V0.279297L30.3323 10.2404V0.772633H31.6999V13.7227L22.8783 3.87207V13.2369H21.5107V13.2379Z" fill="white"/>
<path id="Vector_3" d="M43.8613 13.2387V0.773438H50.2207V2.12689H45.2953V5.7025H50.2207V7.0817H45.2953V11.8585H50.2207V13.2377H43.8613V13.2387Z" fill="white"/>
<path id="Vector_4" d="M61.8779 0.773438H63.3274V8.52953C63.3274 9.78968 63.5868 10.7152 64.1056 11.3051C64.6244 11.8949 65.4389 12.1909 66.5481 12.1909C67.6573 12.1909 68.4718 11.896 68.9906 11.3051C69.5094 10.7152 69.7688 9.78968 69.7688 8.52953V0.773438H71.2266V8.52953C71.2266 10.2155 70.8386 11.4767 70.0614 12.3143C69.2842 13.1519 68.1128 13.5701 66.5481 13.5701C64.9834 13.5701 63.8203 13.1519 63.0431 12.3143C62.266 11.4767 61.8779 10.2155 61.8779 8.52953V0.773438Z" fill="white"/>
<path id="Vector_5" d="M83.3555 13.2387V0.773438H86.1891C86.9964 0.773438 87.5878 0.820626 87.9644 0.913931C88.3401 1.00724 88.671 1.16811 88.9574 1.39547C89.3143 1.68504 89.5914 2.0722 89.7896 2.55803C89.9877 3.04278 90.0863 3.58116 90.0863 4.17102C90.0863 5.19308 89.8103 5.96848 89.2583 6.49935C88.7063 7.03022 87.898 7.29512 86.8324 7.29512H86.5772L91.182 13.2377H89.3621L84.9637 7.29512H84.7583V13.2377H83.3575L83.3555 13.2387ZM84.7552 2.02501V6.19691H85.8509C86.9715 6.19691 87.7206 6.04784 88.0993 5.74969C88.4781 5.45155 88.6679 4.9314 88.6679 4.18711C88.6679 3.38704 88.4729 2.82614 88.0827 2.50547C87.6926 2.18481 86.9486 2.02394 85.8509 2.02394H84.7552V2.02501Z" fill="white"/>
<path id="Vector_6" d="M114 7.03103C114 7.92225 113.841 8.76199 113.522 9.55133C113.204 10.3407 112.739 11.041 112.13 11.6544C111.52 12.2679 110.818 12.7398 110.023 13.0722C109.23 13.4047 108.407 13.5699 107.555 13.5699C106.703 13.5699 105.883 13.4036 105.095 13.0722C104.306 12.7409 103.607 12.2679 102.997 11.6544C102.381 11.0356 101.914 10.3321 101.592 9.54275C101.27 8.75342 101.109 7.91689 101.109 7.03103C101.109 6.14517 101.27 5.29899 101.592 4.50644C101.914 3.71496 102.381 3.00927 102.997 2.39046C103.602 1.78344 104.299 1.31477 105.091 0.985523C105.882 0.656275 106.703 0.492188 107.555 0.492188C108.407 0.492188 109.238 0.657348 110.032 0.985523C110.825 1.31477 111.525 1.78344 112.13 2.39046C112.74 3.00391 113.204 3.7053 113.522 4.49786C113.841 5.28934 114 6.13445 114 7.03103ZM107.556 12.1735C108.216 12.1735 108.844 12.0448 109.439 11.7864C110.036 11.5279 110.572 11.1525 111.051 10.6581C111.523 10.1701 111.883 9.61675 112.131 8.99794C112.378 8.37912 112.502 7.72385 112.502 7.03103C112.502 6.33822 112.377 5.66899 112.127 5.03838C111.876 4.40884 111.518 3.85223 111.051 3.36962C110.577 2.88165 110.043 2.5095 109.447 2.25425C108.851 1.99901 108.22 1.87138 107.556 1.87138C106.892 1.87138 106.251 1.99901 105.651 2.25425C105.052 2.5095 104.522 2.88165 104.06 3.36962C103.588 3.86296 103.228 4.42279 102.98 5.04696C102.733 5.67114 102.61 6.33285 102.61 7.03103C102.61 7.72921 102.732 8.37591 102.977 8.98936C103.222 9.60281 103.583 10.1583 104.061 10.6581C104.545 11.1579 105.082 11.5354 105.673 11.7906C106.263 12.0459 106.892 12.1735 107.557 12.1735H107.556Z" fill="white"/>
</g>
</g>
<defs>
<clipPath id="clip0_694_9973">
<rect width="114" height="13.4434" fill="white" transform="translate(0 0.277344)"/>
</clipPath>
</defs>
</svg>
