<svg width="138" height="16" viewBox="0 0 138 16" fill="none" xmlns="http://www.w3.org/2000/svg">
<g id="Layer_1" clip-path="url(#clip0_1093_12640)">
<g id="Group">
<path id="Vector" d="M0 15.4238V0.587891H2.8022C4.87591 0.587891 6.33667 0.693834 7.18449 0.906997C8.03231 1.12016 8.77463 1.47628 9.41269 1.97537C10.2505 2.63017 10.8848 3.46878 11.3168 4.48865C11.7489 5.50851 11.9649 6.6841 11.9649 8.01541C11.9649 9.34673 11.7502 10.5096 11.3219 11.5269C10.8935 12.5442 10.2567 13.379 9.41269 14.035C8.77463 14.5354 8.04864 14.8915 7.23348 15.1034C6.41957 15.3166 5.15098 15.4225 3.42896 15.4225H0V15.4238ZM1.75467 13.7619H2.86124C4.6561 13.7619 5.89957 13.6827 6.59039 13.5232C7.28121 13.3649 7.85647 13.093 8.31492 12.7076C8.91279 12.2008 9.36873 11.5473 9.68148 10.747C9.99423 9.94665 10.15 9.0289 10.15 7.99627C10.15 6.96364 9.99549 6.04206 9.6865 5.25578C9.37752 4.4695 8.92032 3.81852 8.31492 3.3054C7.85647 2.91354 7.27241 2.63528 6.56527 2.46934C5.85812 2.30341 4.62219 2.22044 2.86124 2.22044H1.75467V13.7619Z" fill="white"/>
<path id="Vector_2" d="M26.0391 15.4231V0L36.7178 11.8554V0.587156H38.3733V16L27.6945 4.27603V15.4218H26.0391V15.4231Z" fill="white"/>
<path id="Vector_3" d="M53.0957 15.4238V0.587891H60.7939V2.19874H54.8315V6.45434H60.7939V8.09583H54.8315V13.781H60.7939V15.4225H53.0957V15.4238Z" fill="white"/>
<path id="Vector_4" d="M74.9043 0.587891H76.659V9.819C76.659 11.3188 76.973 12.4204 77.601 13.1224C78.229 13.8244 79.215 14.1767 80.5577 14.1767C81.9004 14.1767 82.8864 13.8257 83.5144 13.1224C84.1424 12.4204 84.4564 11.3188 84.4564 9.819V0.587891H86.2211V9.819C86.2211 11.8255 85.7514 13.3266 84.8106 14.3235C83.8698 15.3204 82.4518 15.8182 80.5577 15.8182C78.6636 15.8182 77.2556 15.3204 76.3148 14.3235C75.3741 13.3266 74.9043 11.8255 74.9043 9.819V0.587891Z" fill="white"/>
<path id="Vector_5" d="M100.904 15.4238V0.587891H104.335C105.312 0.587891 106.028 0.644053 106.484 0.755102C106.938 0.866151 107.339 1.05762 107.686 1.32822C108.118 1.67285 108.453 2.13364 108.693 2.71186C108.933 3.28881 109.052 3.92957 109.052 4.63161C109.052 5.84804 108.718 6.7709 108.05 7.40273C107.382 8.03456 106.403 8.34984 105.113 8.34984H104.804L110.379 15.4225H108.175L102.851 8.34984H102.602V15.4225H100.907L100.904 15.4238ZM102.599 2.07748V7.04278H103.925C105.282 7.04278 106.188 6.86535 106.647 6.51051C107.105 6.15566 107.335 5.53659 107.335 4.65075C107.335 3.69854 107.099 3.03097 106.627 2.64932C106.155 2.26767 105.254 2.0762 103.925 2.0762H102.599V2.07748Z" fill="white"/>
<path id="Vector_6" d="M137.999 8.03432C137.999 9.09503 137.806 10.0945 137.42 11.0339C137.035 11.9734 136.472 12.8069 135.735 13.537C134.996 14.2671 134.147 14.8287 133.185 15.2244C132.224 15.6201 131.228 15.8167 130.197 15.8167C129.166 15.8167 128.174 15.6188 127.219 15.2244C126.264 14.83 125.418 14.2671 124.679 13.537C123.934 12.8005 123.368 11.9632 122.979 11.0237C122.589 10.0843 122.395 9.08865 122.395 8.03432C122.395 6.97999 122.589 5.97289 122.979 5.02962C123.368 4.08761 123.934 3.24773 124.679 2.51123C125.412 1.78877 126.256 1.23097 127.214 0.839109C128.172 0.447246 129.166 0.251953 130.197 0.251953C131.228 0.251953 132.234 0.448523 133.195 0.839109C134.156 1.23097 135.003 1.78877 135.735 2.51123C136.473 3.24134 137.035 4.07613 137.42 5.0194C137.806 5.96141 137.999 6.96723 137.999 8.03432ZM130.198 14.1548C130.997 14.1548 131.757 14.0016 132.478 13.694C133.2 13.3864 133.85 12.9396 134.429 12.3512C135 11.7704 135.436 11.1118 135.736 10.3753C136.035 9.63879 136.186 8.85889 136.186 8.03432C136.186 7.20975 136.034 6.41326 135.731 5.66272C135.428 4.91346 134.995 4.251 134.429 3.6766C133.856 3.09583 133.209 2.65291 132.488 2.34912C131.766 2.04533 131.002 1.89344 130.198 1.89344C129.394 1.89344 128.618 2.04533 127.892 2.34912C127.167 2.65291 126.526 3.09583 125.967 3.6766C125.395 4.26376 124.959 4.93005 124.659 5.67293C124.36 6.41581 124.211 7.20337 124.211 8.03432C124.211 8.86528 124.359 9.63496 124.655 10.3651C124.952 11.0952 125.389 11.7564 125.968 12.3512C126.553 12.946 127.204 13.3953 127.919 13.6991C128.633 14.0029 129.394 14.1548 130.199 14.1548H130.198Z" fill="white"/>
</g>
</g>
<defs>
<clipPath id="clip0_1093_12640">
<rect width="138" height="16" fill="white"/>
</clipPath>
</defs>
</svg>
