<svg width="114" height="13" viewBox="0 0 114 13" fill="none" xmlns="http://www.w3.org/2000/svg">
<g id="_?&#235;&#141;&#137;&#236;&#148;&#160;??4" clip-path="url(#clip0_389_2216)">
<g id="Group">
<path id="Vector" d="M5.45405 0L10.9246 12.5026H9.37256L7.81219 8.81484H3.11349L1.55313 12.5026H0L5.45405 0ZM5.45405 3.16213L3.5398 7.58972H7.36726L5.45301 3.16213H5.45405Z" fill="white"/>
<path id="Vector_2" d="M18.8936 12.5027V0.476074H20.3225V11.1379H24.865V12.5017H18.8936V12.5027Z" fill="white"/>
<path id="Vector_3" d="M39.9085 6.29238H44.87V6.69488C44.87 8.58947 44.333 10.0847 43.26 11.1794C42.1869 12.2752 40.7218 12.8225 38.8655 12.8225C38.3015 12.8225 37.7635 12.7625 37.2513 12.6415C36.7391 12.5204 36.2673 12.3455 35.8348 12.1158C34.8487 11.5736 34.0881 10.8245 33.5511 9.86943C33.0141 8.91334 32.7461 7.82791 32.7461 6.61211C32.7461 5.60946 32.9065 4.70511 33.2262 3.89698C33.547 3.08886 34.0302 2.37904 34.6759 1.76545C35.2181 1.25119 35.8472 0.86213 36.5653 0.599309C37.2823 0.336488 38.077 0.205078 38.9472 0.205078C40.103 0.205078 41.1046 0.414093 41.9541 0.833157C42.8026 1.25222 43.5062 1.88341 44.065 2.72671L42.8657 3.68797C42.4332 2.95952 41.8941 2.41319 41.2474 2.04896C40.6007 1.68474 39.8505 1.50263 38.9969 1.50263C37.6 1.50263 36.467 1.97343 35.5957 2.91503C34.7255 3.85663 34.2899 5.08899 34.2899 6.61107C34.2899 8.04624 34.7317 9.22272 35.6164 10.1436C36.5011 11.0635 37.6279 11.524 38.9969 11.524C40.2013 11.524 41.205 11.1587 42.0069 10.4271C42.8088 9.69559 43.2537 8.74468 43.3417 7.57233H39.9085V6.29134V6.29238Z" fill="white"/>
<path id="Vector_4" d="M66.0224 6.51381C66.0224 7.37367 65.8631 8.18386 65.5454 8.94542C65.2278 9.70697 64.7642 10.3827 64.1568 10.9745C63.5484 11.5664 62.8489 12.0217 62.0563 12.3424C61.2648 12.6632 60.4442 12.8225 59.5947 12.8225C58.7452 12.8225 57.9278 12.6622 57.1414 12.3424C56.355 12.0227 55.6576 11.5664 55.0492 10.9745C54.4356 10.3775 53.9689 9.6987 53.6481 8.93714C53.3274 8.17558 53.167 7.36849 53.167 6.51381C53.167 5.65912 53.3274 4.84272 53.6481 4.07806C53.9689 3.31443 54.4356 2.63358 55.0492 2.03654C55.6524 1.45089 56.3477 0.998714 57.1372 0.681052C57.9267 0.363391 58.7452 0.205078 59.5947 0.205078C60.4442 0.205078 61.273 0.364426 62.0646 0.681052C62.8562 0.998714 63.5536 1.45089 64.1568 2.03654C64.7652 2.62841 65.2278 3.30512 65.5454 4.06978C65.8631 4.83341 66.0224 5.64878 66.0224 6.51381ZM59.5947 11.4753C60.2528 11.4753 60.8788 11.3512 61.4727 11.1018C62.0677 10.8524 62.6027 10.4903 63.0797 10.0133C63.5505 9.54245 63.9095 9.00853 64.1568 8.4115C64.4031 7.81446 64.5273 7.18224 64.5273 6.51381C64.5273 5.84537 64.4021 5.1997 64.1527 4.59129C63.9033 3.9839 63.5463 3.44688 63.0797 2.98125C62.6078 2.51045 62.075 2.1514 61.481 1.90513C60.8861 1.65887 60.2569 1.53574 59.5947 1.53574C58.9325 1.53574 58.293 1.65887 57.695 1.90513C57.0979 2.1514 56.5692 2.51045 56.1087 2.98125C55.6379 3.45722 55.2789 3.99735 55.0316 4.59956C54.7853 5.20177 54.6622 5.8402 54.6622 6.51381C54.6622 7.18742 54.7843 7.81136 55.0285 8.40322C55.2727 8.99508 55.6327 9.53107 56.1098 10.0133C56.5919 10.4954 57.1279 10.8597 57.7167 11.1059C58.3054 11.3522 58.9325 11.4753 59.5958 11.4753H59.5947Z" fill="white"/>
<path id="Vector_5" d="M75.085 12.5027V0.476074H76.5139V11.1379H81.0564V12.5017H75.085V12.5027Z" fill="white"/>
<path id="Vector_6" d="M93.2899 0L98.7605 12.5026H97.2084L95.6481 8.81484H90.9494L89.389 12.5026H87.8369L93.2899 0ZM93.2899 3.16213L91.3757 7.58972H95.2031L93.2889 3.16213H93.2899Z" fill="white"/>
<path id="Vector_7" d="M106.73 12.5027V0.476074H109.235C110.116 0.476074 110.767 0.521602 111.185 0.611623C111.604 0.701645 111.964 0.856854 112.265 1.07622C112.648 1.36077 112.946 1.72602 113.156 2.17303C113.367 2.61899 113.473 3.10842 113.473 3.63923C113.473 4.27456 113.321 4.80537 113.017 5.23271C112.712 5.66006 112.271 5.95806 111.69 6.12775C112.402 6.23743 112.965 6.55613 113.378 7.08488C113.791 7.61362 113.998 8.27999 113.998 9.085C113.998 9.56719 113.91 10.0266 113.735 10.4653C113.56 10.903 113.316 11.2786 113.003 11.5911C112.664 11.9253 112.245 12.1602 111.746 12.2978C111.247 12.4344 110.41 12.5027 109.233 12.5027H106.728H106.73ZM108.126 1.71671V5.7418H109.236C110.254 5.7418 110.972 5.59383 111.388 5.2979C111.804 5.00197 112.012 4.50427 112.012 3.80272C112.012 3.03082 111.819 2.48965 111.432 2.18027C111.046 1.87089 110.314 1.71568 109.235 1.71568H108.125L108.126 1.71671ZM108.126 6.86758V11.2538H109.236C109.997 11.2538 110.546 11.2238 110.883 11.1638C111.219 11.1038 111.489 10.9992 111.692 10.8513C111.938 10.6764 112.133 10.4322 112.276 10.1197C112.419 9.80724 112.489 9.46268 112.489 9.085C112.489 8.64731 112.404 8.26653 112.234 7.9437C112.065 7.62086 111.818 7.36839 111.496 7.18835C111.304 7.07349 111.082 6.99072 110.83 6.94208C110.578 6.89242 110.187 6.86862 109.656 6.86862H108.128L108.126 6.86758Z" fill="white"/>
</g>
</g>
<defs>
<clipPath id="clip0_389_2216">
<rect width="114" height="12.8223" fill="white"/>
</clipPath>
</defs>
</svg>
