<svg width="211" height="24" viewBox="0 0 211 24" fill="none" xmlns="http://www.w3.org/2000/svg">
<g id="_?&#235;&#141;&#137;&#236;&#148;&#160;??4" clip-path="url(#clip0_391_2314)">
<g id="Group">
<path id="Vector" d="M10.0948 0L20.2202 23.1408H17.3475L14.4594 16.3152H5.76269L2.87464 23.1408H0L10.0948 0ZM10.0948 5.85271L6.55174 14.0476H13.6359L10.0929 5.85271H10.0948Z" fill="white"/>
<path id="Vector_2" d="M34.9697 23.1397V0.879883H37.6146V20.6136H46.0221V23.1378H34.9697V23.1397Z" fill="white"/>
<path id="Vector_3" d="M73.8661 11.6467H83.0492V12.3917C83.0492 15.8984 82.0552 18.6658 80.0692 20.692C78.0832 22.7201 75.3714 23.7332 71.9356 23.7332C70.8918 23.7332 69.896 23.6222 68.948 23.3981C67.9999 23.174 67.1266 22.8504 66.3261 22.4252C64.501 21.4217 63.0933 20.0351 62.0994 18.2674C61.1054 16.4978 60.6094 14.4888 60.6094 12.2385C60.6094 10.3827 60.9062 8.70888 61.498 7.21315C62.0917 5.71741 62.9861 4.40362 64.1811 3.26793C65.1847 2.3161 66.3491 1.596 67.6782 1.10956C69.0054 0.623107 70.4762 0.379883 72.0869 0.379883C74.2261 0.379883 76.08 0.766744 77.6523 1.54238C79.2227 2.31802 80.525 3.48626 81.5592 5.04711L79.3396 6.82629C78.539 5.47802 77.5412 4.46682 76.3443 3.79268C75.1473 3.11855 73.7588 2.78148 72.1788 2.78148C69.5934 2.78148 67.4963 3.65288 65.8837 5.39567C64.2731 7.13846 63.4668 9.4194 63.4668 12.2366C63.4668 14.8929 64.2846 17.0704 65.922 18.7749C67.5595 20.4775 69.6451 21.3297 72.1788 21.3297C74.408 21.3297 76.2657 20.6537 77.75 19.2997C79.2342 17.9457 80.0577 16.1856 80.2205 14.0158H73.8661V11.6448V11.6467Z" fill="white"/>
<path id="Vector_4" d="M122.199 12.0566C122.199 13.6481 121.904 15.1476 121.316 16.5572C120.728 17.9667 119.87 19.2173 118.746 20.3128C117.62 21.4083 116.325 22.2509 114.858 22.8446C113.393 23.4383 111.875 23.7332 110.302 23.7332C108.73 23.7332 107.217 23.4364 105.761 22.8446C104.306 22.2528 103.015 21.4083 101.889 20.3128C100.753 19.2077 99.8895 17.9514 99.2958 16.5419C98.7021 15.1323 98.4053 13.6385 98.4053 12.0566C98.4053 10.4747 98.7021 8.9636 99.2958 7.5483C99.8895 6.13492 100.753 4.87475 101.889 3.7697C103.005 2.68573 104.292 1.8488 105.754 1.26085C107.215 0.672901 108.73 0.379883 110.302 0.379883C111.875 0.379883 113.409 0.674816 114.874 1.26085C116.339 1.8488 117.63 2.68573 118.746 3.7697C119.872 4.86517 120.728 6.11768 121.316 7.53298C121.904 8.94636 122.199 10.4555 122.199 12.0566ZM110.302 21.2397C111.52 21.2397 112.679 21.0099 113.778 20.5484C114.879 20.0868 115.87 19.4165 116.752 18.5336C117.624 17.6622 118.288 16.674 118.746 15.569C119.202 14.4639 119.432 13.2938 119.432 12.0566C119.432 10.8194 119.2 9.62432 118.738 8.49821C118.277 7.37402 117.616 6.38005 116.752 5.51824C115.879 4.64684 114.893 3.98228 113.794 3.52648C112.692 3.07067 111.528 2.84277 110.302 2.84277C109.077 2.84277 107.893 3.07067 106.786 3.52648C105.681 3.98228 104.702 4.64684 103.85 5.51824C102.979 6.39921 102.314 7.39892 101.856 8.51354C101.401 9.62815 101.173 10.8098 101.173 12.0566C101.173 13.3033 101.399 14.4582 101.851 15.5536C102.303 16.6491 102.969 17.6411 103.852 18.5336C104.744 19.4261 105.736 20.1002 106.826 20.556C107.916 21.0118 109.077 21.2397 110.304 21.2397H110.302Z" fill="white"/>
<path id="Vector_5" d="M138.973 23.1397V0.879883H141.617V20.6136H150.025V23.1378H138.973V23.1397Z" fill="white"/>
<path id="Vector_6" d="M172.668 0L182.793 23.1408H179.921L177.033 16.3152H168.336L165.448 23.1408H162.575L172.668 0ZM172.668 5.85271L169.125 14.0476H176.209L172.666 5.85271H172.668Z" fill="white"/>
<path id="Vector_7" d="M197.544 23.1397V0.879883H202.18C203.812 0.879883 205.017 0.96415 205.791 1.13077C206.566 1.29739 207.233 1.58466 207.79 1.99067C208.499 2.51734 209.05 3.19339 209.439 4.02073C209.83 4.84616 210.025 5.75203 210.025 6.7345C210.025 7.91041 209.743 8.89288 209.18 9.68384C208.617 10.4748 207.8 11.0264 206.725 11.3404C208.043 11.5435 209.085 12.1333 209.849 13.112C210.613 14.0906 210.996 15.324 210.996 16.814C210.996 17.7064 210.833 18.5567 210.509 19.3688C210.186 20.1789 209.734 20.8741 209.155 21.4524C208.527 22.071 207.752 22.5058 206.829 22.7605C205.905 23.0133 204.356 23.1397 202.177 23.1397H197.54H197.544ZM200.129 3.17615V10.6261H202.182C204.067 10.6261 205.396 10.3522 206.166 9.80449C206.936 9.25676 207.321 8.33557 207.321 7.0371C207.321 5.60839 206.965 4.60677 206.248 4.03414C205.534 3.46151 204.178 3.17424 202.18 3.17424H200.127L200.129 3.17615ZM200.129 12.7098V20.8281H202.182C203.592 20.8281 204.607 20.7726 205.231 20.6615C205.854 20.5504 206.354 20.357 206.729 20.0831C207.185 19.7595 207.545 19.3075 207.809 18.7291C208.073 18.1507 208.204 17.513 208.204 16.814C208.204 16.0038 208.047 15.2991 207.732 14.7015C207.418 14.104 206.963 13.6367 206.365 13.3035C206.011 13.0909 205.599 12.9377 205.134 12.8477C204.666 12.7557 203.942 12.7117 202.96 12.7117H200.131L200.129 12.7098Z" fill="white"/>
</g>
</g>
<defs>
<clipPath id="clip0_391_2314">
<rect width="211" height="23.7326" fill="white"/>
</clipPath>
</defs>
</svg>
