<svg width="20" height="18" viewBox="0 0 20 18" fill="none" xmlns="http://www.w3.org/2000/svg">
<g id="Group 44">
<path id="Vector 112 (Stroke)" fill-rule="evenodd" clip-rule="evenodd" d="M0 1C0 0.447715 0.447715 0 1 0H19C19.5523 0 20 0.447715 20 1C20 1.55228 19.5523 2 19 2H1C0.447715 2 0 1.55228 0 1Z" fill="#C8D5FA"/>
<path id="Vector 113 (Stroke)" fill-rule="evenodd" clip-rule="evenodd" d="M0 9C0 8.44772 0.447715 8 1 8H19C19.5523 8 20 8.44772 20 9C20 9.55228 19.5523 10 19 10H1C0.447715 10 0 9.55228 0 9ZM0 17C0 16.4477 0.447715 16 1 16H19C19.5523 16 20 16.4477 20 17C20 17.5523 19.5523 18 19 18H1C0.447715 18 0 17.5523 0 17Z" fill="#C8D5FA"/>
</g>
</svg>
