<svg width="20" height="20" viewBox="0 0 20 20" fill="none" xmlns="http://www.w3.org/2000/svg">
<g id="&#235;&#169;&#148;&#236;&#139;&#156;&#236;&#167;&#128;">
<g id="Union">
<path d="M6.66667 10.8333C7.12691 10.8333 7.5 10.4602 7.5 10C7.5 9.53977 7.12691 9.16667 6.66667 9.16667C6.20643 9.16667 5.83333 9.53977 5.83333 10C5.83333 10.4602 6.20643 10.8333 6.66667 10.8333Z" fill="#C8D5FA"/>
<path d="M10.8333 10C10.8333 10.4602 10.4602 10.8333 10 10.8333C9.53977 10.8333 9.16667 10.4602 9.16667 10C9.16667 9.53977 9.53977 9.16667 10 9.16667C10.4602 9.16667 10.8333 9.53977 10.8333 10Z" fill="#C8D5FA"/>
<path d="M13.3333 10.8333C13.7936 10.8333 14.1667 10.4602 14.1667 10C14.1667 9.53977 13.7936 9.16667 13.3333 9.16667C12.8731 9.16667 12.5 9.53977 12.5 10C12.5 10.4602 12.8731 10.8333 13.3333 10.8333Z" fill="#C8D5FA"/>
<path fill-rule="evenodd" clip-rule="evenodd" d="M10 17.5C14.1421 17.5 17.5 14.1421 17.5 10C17.5 5.85786 14.1421 2.5 10 2.5C5.85787 2.5 2.5 5.85786 2.5 10C2.5 11.3045 2.83305 12.5312 3.41877 13.5998C3.53513 13.8121 3.56855 14.062 3.49566 14.2928L2.9491 16.0239C2.7528 16.6457 3.31435 17.2419 3.94673 17.0831L5.93271 16.5844C6.14247 16.5317 6.36351 16.5646 6.55555 16.664C7.58699 17.1982 8.75826 17.5 10 17.5ZM15.8333 10C15.8333 13.2217 13.2217 15.8333 10 15.8333C9.03124 15.8333 8.12221 15.5985 7.32205 15.1841C6.80472 14.9161 6.16833 14.8068 5.5268 14.9679L4.98753 15.1033L5.08499 14.7946C5.30805 14.0882 5.19303 13.3693 4.88027 12.7987C4.42576 11.9695 4.16667 11.0175 4.16667 10C4.16667 6.77834 6.77834 4.16667 10 4.16667C13.2217 4.16667 15.8333 6.77834 15.8333 10Z" fill="#C8D5FA"/>
</g>
</g>
</svg>
