<svg width="20" height="20" viewBox="0 0 20 20" fill="none" xmlns="http://www.w3.org/2000/svg">
<g id="&#236;&#130;&#172;&#235;&#158;&#140;">
<path id="Union" fill-rule="evenodd" clip-rule="evenodd" d="M11.732 5.83333C11.732 6.74437 10.9863 7.5 10.0453 7.5C9.10421 7.5 8.35848 6.74437 8.35848 5.83333C8.35848 4.9223 9.10421 4.16667 10.0453 4.16667C10.9863 4.16667 11.732 4.9223 11.732 5.83333ZM13.3987 5.83333C13.3987 7.67428 11.8973 9.16667 10.0453 9.16667C8.1932 9.16667 6.69181 7.67428 6.69181 5.83333C6.69181 3.99238 8.1932 2.5 10.0453 2.5C11.8973 2.5 13.3987 3.99238 13.3987 5.83333ZM4.16645 16.6708C4.16645 13.9957 6.67664 11.6555 10 11.6555C13.3234 11.6555 15.8336 13.9957 15.8336 16.6708C15.8336 17.1282 16.2066 17.499 16.6668 17.499C17.127 17.499 17.5 17.1282 17.5 16.6708C17.5 12.8912 14.0406 9.99901 10 9.99901C5.95944 9.99901 2.5 12.8912 2.5 16.6708C2.5 17.1282 2.87305 17.499 3.33322 17.499C3.7934 17.499 4.16645 17.1282 4.16645 16.6708Z" fill="#C8D5FA"/>
</g>
</svg>
