<svg width="20" height="20" viewBox="0 0 20 20" fill="none" xmlns="http://www.w3.org/2000/svg">
<g id="&#236;&#150;&#184;&#236;&#150;&#180;&#235;&#179;&#128;&#234;&#178;&#189;">
<path id="Union" fill-rule="evenodd" clip-rule="evenodd" d="M6.68701 10.8333C6.77345 12.5927 7.13035 14.1686 7.66208 15.3459C5.84789 14.5514 4.51571 12.8605 4.22575 10.8333H6.68701ZM8.35589 10.8333C8.43986 12.3717 8.751 13.6927 9.166 14.6264C9.41103 15.1777 9.65963 15.5207 9.85149 15.7033C9.91973 15.7682 9.96913 15.8028 10 15.8207C10.0309 15.8028 10.0803 15.7682 10.1485 15.7033C10.3404 15.5207 10.589 15.1777 10.834 14.6264C11.249 13.6927 11.5601 12.3717 11.6441 10.8333H8.35589ZM11.6441 9.16667H8.35589C8.43986 7.6283 8.751 6.30735 9.166 5.3736C9.41103 4.82228 9.65963 4.4793 9.85149 4.29672C9.91973 4.23177 9.96912 4.19716 10 4.1793C10.0309 4.19716 10.0803 4.23177 10.1485 4.29672C10.3404 4.4793 10.589 4.82228 10.834 5.3736C11.249 6.30735 11.5601 7.6283 11.6441 9.16667ZM13.313 10.8333C13.2266 12.5927 12.8697 14.1686 12.3379 15.346C14.1521 14.5514 15.4843 12.8605 15.7743 10.8333H13.313ZM15.7743 9.16667H13.313C13.2266 7.40734 12.8697 5.83142 12.3379 4.65405C14.1521 5.44857 15.4843 7.13952 15.7743 9.16667ZM17.5 9.99145V9.16667H17.4542C17.0397 5.41671 13.8605 2.5 10 2.5C6.13954 2.5 2.96031 5.41671 2.54578 9.16667H2.5V10.8333H2.54578C2.96032 14.5833 6.13955 17.5 10 17.5H10.0027C13.8619 17.4987 17.0398 14.5824 17.4542 10.8333H17.5V10.0086C17.5 10.0057 17.5 10.0029 17.5 10C17.5 9.99715 17.5 9.9943 17.5 9.99145ZM4.22575 9.16667C4.51571 7.13952 5.84789 5.44858 7.66209 4.65406C7.13035 5.83142 6.77345 7.40734 6.68701 9.16667H4.22575Z" fill="#C8D5FA"/>
</g>
</svg>
