<svg width="51" height="47" viewBox="0 0 51 47" fill="none" xmlns="http://www.w3.org/2000/svg">
<g id="Group 45">
<g id="Union">
<path d="M24.5 14.5C26.7091 14.5 28.5 12.7091 28.5 10.5C28.5 8.29086 26.7091 6.5 24.5 6.5C22.2909 6.5 20.5 8.29086 20.5 10.5C20.5 12.7091 22.2909 14.5 24.5 14.5Z" fill="white"/>
<path d="M7.5 38.5C10.8137 38.5 13.5 35.8137 13.5 32.5C13.5 31 7.5 31.5 7.5 31.5C7.5 31.5 1.5 31.5 1.5 32.5C1.5 35.8137 4.18629 38.5 7.5 38.5Z" fill="white"/>
<path d="M41.5 38.5C44.8137 38.5 47.5 35.8137 47.5 32.5C47.5 31 41.5 31.5 41.5 31.5C41.5 31.5 35.5 31.5 35.5 32.5C35.5 35.8137 38.1863 38.5 41.5 38.5Z" fill="white"/>
<path d="M32.5 45.5H17C17 43.983 18.9477 42.0465 19.86 41.1394L19.8615 41.138C19.9109 41.0889 19.9572 41.0428 20 41H27.5C30.3 41 32 44 32.5 45.5Z" fill="white"/>
</g>
<path id="Vector" d="M50.4838 31.1588L44.8047 15.0589C44.7321 14.9172 44.6316 14.7919 44.5094 14.6909C44.747 14.2127 44.8714 13.6852 44.8729 13.1499C44.8729 12.8449 44.7532 12.5524 44.5402 12.3368C44.3272 12.1211 44.0383 11.9999 43.7371 11.9999C43.4358 11.9999 43.1469 12.1211 42.9339 12.3368C42.7209 12.5524 42.6012 12.8449 42.6012 13.1499C42.6012 13.4549 42.4816 13.7474 42.2686 13.9631C42.0556 14.1788 41.7667 14.2999 41.4654 14.2999C41.1642 14.2999 40.8753 14.1788 40.6623 13.9631C40.4493 13.7474 40.3296 13.4549 40.3296 13.1499C40.3297 12.691 40.2394 12.2367 40.0639 11.8135C39.8884 11.3904 39.6313 11.007 39.3076 10.6857C38.984 10.3644 38.6002 10.1117 38.1789 9.94248C37.7576 9.77322 37.3072 9.69076 36.854 9.69994H32.3108C32.0068 8.30876 31.1955 7.08494 30.0391 6.27296V3.97298C30.034 3.42382 29.8995 2.88383 29.6467 2.39792C29.3939 1.91201 29.0303 1.49422 28.5859 1.17928C28.1415 0.864345 27.6293 0.661366 27.0919 0.587222C26.5544 0.513078 26.0073 0.569912 25.4959 0.752998C25.1336 0.605911 24.7499 0.520428 24.3601 0.5C23.4564 0.5 22.5897 0.863479 21.9506 1.51048C21.3116 2.15747 20.9526 3.03499 20.9526 3.94998V6.24996C19.8342 7.08785 19.0647 8.31804 18.7946 9.69994H11.8661C10.9624 9.69994 10.0957 10.0634 9.45669 10.7104C8.81767 11.3574 8.45868 12.2349 8.45868 13.1499C8.45868 13.4549 8.33901 13.7474 8.126 13.9631C7.913 14.1788 7.6241 14.2999 7.32286 14.2999C7.02163 14.2999 6.73273 14.1788 6.51972 13.9631C6.30672 13.7474 6.18705 13.4549 6.18705 13.1499C6.18705 12.8449 6.06738 12.5524 5.85438 12.3368C5.64137 12.1211 5.35247 11.9999 5.05124 11.9999C4.75 11.9999 4.4611 12.1211 4.24809 12.3368C4.03509 12.5524 3.91542 12.8449 3.91542 13.1499C3.89155 13.9349 4.13292 14.7047 4.59966 15.332C5.06639 15.9593 5.73055 16.4065 6.48236 16.5999L11.3891 30.3998H3.25665L6.36878 21.5909C6.46144 21.3066 6.44097 20.9969 6.3117 20.7277C6.18243 20.4584 5.95456 20.2509 5.67652 20.149C5.39847 20.0472 5.09217 20.0592 4.8227 20.1824C4.55323 20.3056 4.34184 20.5303 4.23345 20.8089L0.507979 31.1588C0.498224 31.2197 0.498224 31.2819 0.507979 31.3428C0.49734 31.4114 0.49734 31.4812 0.507979 31.5498V32.6998C0.507979 34.5298 1.22597 36.2848 2.50401 37.5788C3.78205 38.8728 5.51544 39.5997 7.32286 39.5997C9.13028 39.5997 10.8637 38.8728 12.1417 37.5788C13.4198 36.2848 14.1377 34.5298 14.1377 32.6998V31.5498C14.1484 31.4812 14.1484 31.4114 14.1377 31.3428C14.1475 31.2819 14.1475 31.2197 14.1377 31.1588L8.79942 16.2319C9.37536 15.9545 9.86218 15.5181 10.2038 14.9728C10.5454 14.4275 10.7279 13.7956 10.7303 13.1499C10.7303 12.8449 10.85 12.5524 11.063 12.3368C11.276 12.1211 11.5649 11.9999 11.8661 11.9999H18.7946C19.0699 13.3734 19.8389 14.5946 20.9526 15.4269V34.9998C20.9526 35.3048 21.0723 35.5973 21.2853 35.8129C21.4983 36.0286 21.7872 36.1498 22.0884 36.1498C22.3897 36.1498 22.6786 36.0286 22.8916 35.8129C23.1046 35.5973 23.2243 35.3048 23.2243 34.9998V16.5999C23.9739 16.7535 24.7463 16.7535 25.4959 16.5999V39.5997H21.4978C20.4416 39.595 19.4051 39.8898 18.5058 40.4507C17.6064 41.0117 16.8802 41.8164 16.4094 42.7737L15.3871 44.8437C15.2977 45.0136 15.2508 45.2032 15.2508 45.3957C15.2508 45.5882 15.2977 45.7778 15.3871 45.9477C15.4964 46.1209 15.6478 46.2626 15.8268 46.3593C16.0059 46.456 16.2065 46.5043 16.4094 46.4997H34.5824C34.7776 46.4966 34.969 46.4445 35.1394 46.3482C35.3099 46.2519 35.4541 46.1143 35.5592 45.9477C35.6487 45.7778 35.6955 45.5882 35.6955 45.3957C35.6955 45.2032 35.6487 45.0136 35.5592 44.8437L34.537 42.7737C34.118 41.8993 33.4845 41.1484 32.697 40.5927C31.9095 40.0369 30.9944 39.6951 30.0391 39.5997V15.4269C31.1955 14.6149 32.0068 13.3911 32.3108 11.9999H36.854C37.1553 11.9999 37.4442 12.1211 37.6572 12.3368C37.8702 12.5524 37.9898 12.8449 37.9898 13.1499C37.9922 13.7956 38.1747 14.4275 38.5163 14.9728C38.858 15.5181 39.3448 15.9545 39.9207 16.2319L34.5824 31.1588C34.5726 31.2197 34.5726 31.2819 34.5824 31.3428C34.5718 31.4114 34.5718 31.4812 34.5824 31.5498V32.6998C34.5824 34.5298 35.3004 36.2848 36.5784 37.5788C37.8565 38.8728 39.5899 39.5997 41.3973 39.5997C41.7786 39.5968 42.1588 39.5584 42.5331 39.4847C42.9076 39.5571 43.2877 39.5956 43.6689 39.5997C45.4763 39.5997 47.2097 38.8728 48.4878 37.5788C49.7658 36.2848 50.4838 34.5298 50.4838 32.6998V31.5498C50.5054 31.4204 50.5054 31.2882 50.4838 31.1588ZM7.32286 37.2998C6.11792 37.2998 4.96232 36.8151 4.1103 35.9525C3.25827 35.0898 2.77961 33.9198 2.77961 32.6998H11.8661C11.8661 33.9198 11.3875 35.0898 10.5354 35.9525C9.6834 36.8151 8.52781 37.2998 7.32286 37.2998ZM23.2243 3.94998C23.2243 3.64498 23.3439 3.35248 23.5569 3.13681C23.7699 2.92114 24.0588 2.79998 24.3601 2.79998C24.5249 2.76526 24.695 2.76526 24.8598 2.79998C25.0884 2.94284 25.2701 3.15088 25.3823 3.39798C25.4062 3.51946 25.4062 3.6445 25.3823 3.76598V5.03097C24.6327 4.87733 23.8603 4.87733 23.1107 5.03097L23.2243 3.94998ZM25.2006 14.2999C24.9292 14.3366 24.6542 14.3366 24.3828 14.2999C23.4791 14.2999 22.6124 13.9364 21.9734 13.2894C21.3343 12.6424 20.9753 11.7649 20.9753 10.8499C20.9753 9.93494 21.3343 9.05743 21.9734 8.41043C22.6124 7.76343 23.4791 7.39995 24.3828 7.39995C24.6542 7.36326 24.9292 7.36326 25.2006 7.39995C25.9136 7.59948 26.5483 8.01719 27.0179 8.59595C27.2569 8.92869 27.434 9.30282 27.5403 9.69994C27.5502 9.7454 27.5502 9.79248 27.5403 9.83794C27.7818 10.5063 27.7818 11.2396 27.5403 11.9079C27.5502 11.9534 27.5502 12.0005 27.5403 12.0459C27.427 12.3676 27.2662 12.67 27.0633 12.9429C26.6058 13.5894 25.9514 14.0662 25.2006 14.2999ZM30.289 43.9237L30.4708 44.3147H18.2494L18.4311 43.9237C18.6991 43.3259 19.13 42.8179 19.6732 42.4594C20.2164 42.1008 20.8494 41.9067 21.4978 41.8997H27.2223C27.8585 41.8963 28.483 42.0733 29.025 42.4107C29.567 42.7481 30.0048 43.2324 30.289 43.8087V43.9237ZM41.3973 18.8999V19.0839L45.4635 30.3998H37.3311L41.3973 18.8999ZM45.9405 33.5968V33.8958C45.8979 34.0676 45.8448 34.2366 45.7815 34.4018C45.7815 34.5168 45.6679 34.6088 45.6225 34.7238C45.5555 34.8665 45.4797 35.0048 45.3953 35.1378C45.3405 35.2461 45.2718 35.3467 45.1909 35.4368C45.1052 35.5694 45.0063 35.6927 44.8956 35.8048L44.6684 36.0578L44.2595 36.4028L44.0097 36.5868L43.5326 36.8398L43.2827 36.9778L42.6012 37.1848H42.4649C42.1631 37.2199 41.8582 37.2199 41.5563 37.1848C40.3513 37.1848 39.1958 36.7001 38.3437 35.8375C37.4917 34.9748 37.013 33.8048 37.013 32.5848H46.0996C46.0902 32.9201 46.0367 33.2527 45.9405 33.5738V33.5968Z" fill="#3260E7"/>
</g>
</svg>
