<svg width="48" height="47" viewBox="0 0 48 47" fill="none" xmlns="http://www.w3.org/2000/svg">
<g id="Group 699">
<g id="Group 45">
<path id="Union" d="M33.7351 14.8301C34.799 13.4022 35.4288 11.6316 35.4288 9.71401C35.4288 4.98014 31.5912 1.14258 26.8574 1.14258C22.1235 1.14258 18.2859 4.98014 18.2859 9.71401C18.2859 10.6847 18.4473 11.6177 18.7446 12.4877C16.8914 12.6801 15.2528 13.1728 14.2859 14.2854C14.0283 14.5819 12.6624 14.1762 11.0879 13.7086C8.87905 13.0526 6.25982 12.2747 5.71449 13.1426C5.71449 14.7301 6.49737 15.4739 7.15024 16.0943C7.67239 16.5904 8.11138 17.0075 8.00021 17.714C7.86578 18.5683 7.31157 19.5361 6.78121 20.4623C6.27716 21.3425 5.79465 22.1851 5.71449 22.8569C5.69094 23.0542 4.83047 23.5365 3.97754 24.0146C3.13153 24.4889 2.29294 24.9589 2.28588 25.1426C2.20892 27.1461 2.22698 29.3724 3.42878 30.2854C3.69941 30.4911 4.47032 30.3745 5.14322 30.2728C5.7551 30.1803 6.28594 30.1001 6.28594 30.2854C6.28594 31.9998 8.00022 34.8569 10.8574 37.1426C11.5795 38.6863 11.7783 40.5443 11.9479 42.1293C12.0861 43.4209 12.2049 44.5313 12.5717 45.1426C15.5552 45.9563 16.6076 45.1015 18.051 43.9292C18.9416 43.2059 19.9809 42.3618 21.7145 41.714C22.5724 41.3934 23.6005 41.3537 24.8647 41.3049C25.6283 41.2754 26.4782 41.2426 27.4288 41.1426C28.5716 44.5711 33.6347 46.8623 36.0002 44.5711C38.4669 42.182 40.0002 30.5621 40.0002 26.8569C40.0002 22.1197 37.494 17.4811 33.7351 14.8301Z" fill="white"/>
<path id="Vector" d="M14.909 20.7999C14.5823 20.7999 14.2689 20.9298 14.0379 21.161C13.8069 21.3921 13.6771 21.7056 13.6771 22.0325C13.6771 22.3594 13.8069 22.673 14.0379 22.9041C14.2689 23.1353 14.5823 23.2651 14.909 23.2651C15.2338 23.2588 15.5435 23.1269 15.7732 22.8971C16.0029 22.6673 16.1347 22.3575 16.141 22.0325C16.141 21.7056 16.0112 21.3921 15.7802 21.161C15.5491 20.9298 15.2358 20.7999 14.909 20.7999ZM48 19.5673C48 18.2597 47.4808 17.0056 46.5567 16.081C45.6325 15.1564 44.379 14.6369 43.0721 14.6369H41.8401C41.5134 14.6369 41.2 14.7668 40.969 14.9979C40.7379 15.2291 40.6081 15.5426 40.6081 15.8695C40.6081 16.1964 40.7379 16.51 40.969 16.7411C41.2 16.9723 41.5134 17.1021 41.8401 17.1021H43.0721C43.7256 17.0204 44.3847 17.2018 44.9046 17.6063C45.4244 18.0108 45.7624 18.6054 45.844 19.2592C45.9257 19.913 45.7445 20.5725 45.3402 21.0926C44.9358 21.6127 44.3416 21.9508 43.6881 22.0325C42.4697 19.0205 40.3752 16.444 37.676 14.6369C38.5075 13.127 38.9288 11.4254 38.8979 9.7017C38.8671 7.97804 38.3851 6.2926 37.5 4.81346C36.615 3.33432 35.3578 2.11317 33.8539 1.27179C32.35 0.430404 30.6519 -0.00180342 28.929 0.0182655C28.5598 -0.00608851 28.1894 -0.00608851 27.8202 0.0182655H26.465C24.2813 0.0198952 22.1599 0.747091 20.434 2.08567C18.7081 3.42425 17.4754 5.29841 16.9295 7.41388C16.8887 7.5709 16.8794 7.73441 16.902 7.89505C16.9245 8.0557 16.9786 8.2103 17.061 8.35001C17.1434 8.48971 17.2525 8.61177 17.3822 8.70918C17.5118 8.80659 17.6594 8.87743 17.8165 8.91765C17.9719 8.95813 18.1337 8.96721 18.2926 8.94434C18.4515 8.92148 18.6043 8.86714 18.7419 8.7845C18.8796 8.70186 18.9994 8.59259 19.0944 8.46306C19.1893 8.33354 19.2575 8.18638 19.2949 8.03018C19.714 6.24863 20.7956 4.6937 22.3198 3.68165C23.844 2.66959 25.6963 2.27641 27.4999 2.58208C28.5917 2.7497 29.6321 3.16003 30.5446 3.78288C31.4571 4.40574 32.2185 5.22529 32.7727 6.18128V6.32919C32.971 6.63976 33.1361 6.97026 33.2655 7.31527C33.3258 7.45929 33.3752 7.60761 33.4134 7.75901C33.4134 8.03018 33.5858 8.30135 33.6351 8.57252C33.7525 8.99954 33.8268 9.43725 33.8569 9.87908C33.8521 10.419 33.7859 10.9565 33.6598 11.4815C33.6598 11.4815 33.6598 11.6294 33.6598 11.728C33.6047 11.8964 33.5389 12.0611 33.4626 12.221C30.9321 11.2417 28.242 10.7402 25.5287 10.7419H23.0647C21.4061 10.7459 19.7531 10.9361 18.1368 11.3089H17.8165C16.5537 11.6149 15.3241 12.0442 14.1452 12.5908L6.48229 11.3089C6.00804 11.2395 5.52396 11.3205 5.09819 11.5408C4.67241 11.761 4.32636 12.1092 4.10875 12.5365C3.89114 12.9638 3.81293 13.4486 3.88511 13.9226C3.95728 14.3967 4.17623 14.8362 4.51112 15.1793L7.1722 17.8417C6.12129 19.0901 5.28829 20.507 4.70824 22.0325L1.48045 23.0926C1.19642 23.1885 0.9345 23.3405 0.710195 23.5395C0.48589 23.7386 0.303753 23.9806 0.174556 24.2512C0.0593533 24.5243 0 24.8177 0 25.114C0 25.4104 0.0593533 25.7038 0.174556 25.9769L1.70221 30.5868C1.85962 31.0377 2.15241 31.4289 2.54054 31.7069C2.92867 31.9849 3.39317 32.1361 3.87049 32.1399H5.12711C6.26489 34.6835 8.03844 36.8909 10.2768 38.5494V43.4798C10.2701 44.3606 10.6101 45.2086 11.2233 45.8406C11.8365 46.4726 12.6737 46.8377 13.5539 46.8571H18.4818C19.2692 46.856 20.0306 46.5754 20.6307 46.0653C21.2308 45.5553 21.6305 44.8487 21.7588 44.0715L22.0052 42.617C23.7038 42.6961 25.4059 42.5886 27.081 42.2965V43.5291C27.081 44.4118 27.4314 45.2583 28.0553 45.8824C28.6791 46.5065 29.5251 46.8571 30.4073 46.8571H35.3353C36.1256 46.8569 36.8903 46.5772 37.4945 46.0675C38.0987 45.5577 38.5033 44.8508 38.637 44.0715L39.7457 37.3661C41.2681 36.031 42.4933 34.391 43.3421 32.5523C44.191 30.7135 44.6446 28.717 44.6737 26.6918C44.6659 25.8654 44.5918 25.041 44.4519 24.2266C45.4635 23.9315 46.3539 23.3198 46.9925 22.4813C47.631 21.6427 47.9842 20.6214 48 19.5673ZM35.2367 35.7637C35.0362 35.9568 34.8988 36.206 34.8425 36.4786L33.6598 43.6031C33.6306 43.8058 33.5303 43.9914 33.3768 44.1269C33.2233 44.2624 33.0267 44.3389 32.822 44.3426H30.3581C30.2448 44.3426 30.1327 44.3203 30.028 44.277C29.9234 44.2336 29.8283 44.17 29.7483 44.0899C29.6682 44.0098 29.6047 43.9147 29.5613 43.81C29.518 43.7053 29.4957 43.5931 29.4957 43.4798V40.6941C29.4919 40.507 29.4456 40.3231 29.3602 40.1565C29.2748 39.9899 29.1526 39.845 29.0029 39.7327C28.7947 39.5605 28.5338 39.4648 28.2637 39.4615H27.9434C25.6978 40.0235 23.3717 40.1903 21.0689 39.9546L19.2949 39.6834H18.8021C18.4794 39.6158 18.1432 39.6778 17.8658 39.856C17.5813 40.0525 17.3864 40.354 17.3237 40.6941L16.8556 43.677C16.8127 43.869 16.709 44.0419 16.5599 44.1701C16.4848 44.2428 16.3961 44.2998 16.2988 44.3379C16.2015 44.376 16.0976 44.3944 15.9932 44.3919H13.5292C13.3005 44.3919 13.0811 44.301 12.9194 44.1392C12.7577 43.9774 12.6668 43.7579 12.6668 43.5291V37.9085C12.6659 37.7112 12.6186 37.5169 12.5287 37.3413C12.4388 37.1657 12.3089 37.0138 12.1494 36.8977C9.82263 35.3458 8.03926 33.1047 7.049 30.4882C6.96292 30.25 6.80556 30.0441 6.59835 29.8985C6.39114 29.7529 6.14413 29.6748 5.89094 29.6747L3.96905 29.7979L2.49068 25.3852L6.1127 24.1773C6.29457 24.122 6.46189 24.027 6.60252 23.8991C6.74315 23.7712 6.85358 23.6136 6.9258 23.4377C7.47985 21.6039 8.43995 19.9187 9.73472 18.5073C9.95891 18.2811 10.0847 17.9754 10.0847 17.6568C10.0847 17.3382 9.95891 17.0325 9.73472 16.8063L6.75333 13.8234L14.1452 15.0807C14.388 15.1402 14.6416 15.1402 14.8844 15.0807C17.4508 13.904 20.2417 13.2984 23.0647 13.3057C23.7896 13.3174 24.5133 13.3667 25.233 13.4536H25.9722C26.6375 13.4536 27.2781 13.7001 27.9187 13.8481L28.6333 14.0453C29.2739 14.2425 29.9145 14.4397 30.5059 14.6862L31.048 14.9328C31.5654 15.1546 32.0582 15.4258 32.551 15.697L33.3148 16.1407L34.2018 16.7323L34.9164 17.324L35.3845 17.7184L36.0498 18.3594C36.1936 18.4869 36.3256 18.6271 36.444 18.7785C36.6622 18.9968 36.8678 19.2272 37.06 19.4687L37.3557 19.8878C37.6742 20.3329 37.9703 20.7936 38.2427 21.2683L38.5384 21.8107C38.5384 22.0079 38.7355 22.2544 38.8341 22.4763C38.9392 22.7087 39.0297 22.9475 39.1051 23.1912C39.1051 23.3884 39.2283 23.6103 39.3022 23.8075C39.3761 24.0047 39.4501 24.4238 39.4994 24.7196C39.5486 25.0154 39.4994 25.0647 39.4994 25.2373V26.7164C39.4711 28.4407 39.0763 30.1392 38.3414 31.6991C37.6064 33.259 36.5481 34.6446 35.2367 35.7637Z" fill="#3260E7"/>
</g>
</g>
</svg>
