<svg width="31" height="30" viewBox="0 0 31 30" fill="none" xmlns="http://www.w3.org/2000/svg">
<g id="Group 699">
<g id="Group 45">
<path id="Union" d="M21.7124 9.57396C22.3706 8.69069 22.7601 7.5955 22.7601 6.40934C22.7601 3.48117 20.3863 1.10742 17.4582 1.10742C14.53 1.10742 12.1562 3.48117 12.1562 6.40934C12.1562 7.00977 12.2561 7.5869 12.44 8.12502C11.2936 8.24401 10.2801 8.54877 9.68203 9.23703C9.52268 9.42041 8.67776 9.16948 7.70385 8.88024C6.33757 8.47446 4.71742 7.99329 4.38011 8.5301C4.38011 9.51206 4.86436 9.97219 5.2682 10.3559C5.59118 10.6628 5.86272 10.9208 5.79395 11.3578C5.7108 11.8862 5.36799 12.4848 5.03994 13.0577C4.72815 13.6022 4.42969 14.1234 4.38011 14.5389C4.36554 14.661 3.83329 14.9594 3.30571 15.2551C2.7824 15.5484 2.26368 15.8392 2.25932 15.9528C2.21171 17.192 2.22288 18.5691 2.96626 19.1339C3.13367 19.2611 3.61052 19.189 4.02675 19.1261C4.40523 19.0689 4.73358 19.0193 4.73358 19.1339C4.73358 20.1944 5.79396 21.9616 7.56127 23.3755C8.00797 24.3304 8.13093 25.4796 8.23582 26.4601C8.3213 27.259 8.39478 27.9458 8.62166 28.3239C10.4671 28.8272 11.1181 28.2985 12.011 27.5734C12.5618 27.126 13.2047 26.6038 14.277 26.2032C14.8077 26.0048 15.4436 25.9803 16.2256 25.9501C16.698 25.9319 17.2236 25.9116 17.8116 25.8497C18.5186 27.9705 21.6503 29.3877 23.1135 27.9705C24.6393 26.4926 25.5878 19.3051 25.5878 17.0132C25.5878 14.083 24.0375 11.2138 21.7124 9.57396Z" fill="white"/>
<path id="Vector" d="M10.0678 13.2663C9.86568 13.2663 9.67185 13.3467 9.52893 13.4896C9.38602 13.6326 9.30574 13.8266 9.30574 14.0288C9.30574 14.231 9.38602 14.4249 9.52893 14.5679C9.67185 14.7109 9.86568 14.7912 10.0678 14.7912C10.2687 14.7873 10.4602 14.7057 10.6023 14.5636C10.7444 14.4214 10.8259 14.2298 10.8298 14.0288C10.8298 13.8266 10.7495 13.6326 10.6066 13.4896C10.4637 13.3467 10.2699 13.2663 10.0678 13.2663ZM30.5364 12.5039C30.5364 11.6951 30.2153 10.9193 29.6436 10.3474C29.072 9.77547 28.2967 9.45416 27.4882 9.45416H26.7262C26.5241 9.45416 26.3302 9.53449 26.1873 9.67747C26.0444 9.82046 25.9641 10.0144 25.9641 10.2166C25.9641 10.4188 26.0444 10.6127 26.1873 10.7557C26.3302 10.8987 26.5241 10.979 26.7262 10.979H27.4882C27.8924 10.9285 28.3002 11.0406 28.6217 11.2909C28.9433 11.5411 29.1523 11.9089 29.2028 12.3133C29.2534 12.7177 29.1413 13.1256 28.8912 13.4474C28.6411 13.7691 28.2735 13.9782 27.8693 14.0288C27.1156 12.1657 25.82 10.572 24.1505 9.45416C24.6648 8.52019 24.9254 7.46762 24.9063 6.40144C24.8872 5.33526 24.5891 4.29272 24.0416 3.37779C23.4942 2.46286 22.7165 1.7075 21.7863 1.18706C20.856 0.66662 19.8056 0.399275 18.7399 0.411689C18.5115 0.396625 18.2824 0.396625 18.0541 0.411689H17.2158C15.865 0.412697 14.5529 0.862509 13.4853 1.6905C12.4177 2.51849 11.6552 3.67776 11.3175 4.98629C11.2923 5.08342 11.2866 5.18456 11.3005 5.28393C11.3145 5.3833 11.3479 5.47893 11.3989 5.56534C11.4498 5.65176 11.5174 5.72726 11.5976 5.78751C11.6778 5.84776 11.7691 5.89159 11.8662 5.91646C11.9623 5.9415 12.0624 5.94712 12.1607 5.93297C12.259 5.91883 12.3535 5.88522 12.4387 5.8341C12.5238 5.78299 12.5979 5.71539 12.6566 5.63528C12.7154 5.55516 12.7575 5.46413 12.7807 5.36751C13.0399 4.26552 13.709 3.30371 14.6518 2.6777C15.5946 2.05168 16.7403 1.80848 17.8559 1.99755C18.5313 2.10124 19.1749 2.35505 19.7393 2.74032C20.3037 3.12559 20.7747 3.63253 21.1175 4.22386V4.31535C21.2401 4.50746 21.3423 4.71189 21.4223 4.9253C21.4596 5.01438 21.4902 5.10613 21.5138 5.19978C21.5138 5.36751 21.6205 5.53525 21.6509 5.70298C21.7235 5.96712 21.7695 6.23786 21.7881 6.51116C21.7851 6.84511 21.7442 7.17763 21.6662 7.50233C21.6662 7.50233 21.6662 7.59382 21.6662 7.65481C21.6321 7.75899 21.5914 7.86086 21.5442 7.95979C19.9789 7.35402 18.315 7.0438 16.6366 7.04487H15.1125C14.0866 7.04735 13.0641 7.16499 12.0644 7.39559H11.8662C11.0851 7.58484 10.3245 7.85043 9.59531 8.18852L4.85537 7.39559C4.56202 7.35263 4.26259 7.40279 3.99922 7.539C3.73585 7.67522 3.5218 7.89063 3.3872 8.15492C3.2526 8.41921 3.20421 8.71908 3.24886 9.01233C3.29351 9.30557 3.42894 9.57742 3.63609 9.78963L5.28212 11.4365C4.63207 12.2087 4.11681 13.0851 3.75802 14.0288L1.76145 14.6845C1.58575 14.7438 1.42374 14.8378 1.285 14.9609C1.14625 15.084 1.03359 15.2337 0.953676 15.4011C0.882416 15.57 0.845703 15.7515 0.845703 15.9348C0.845703 16.1182 0.882416 16.2997 0.953676 16.4686L1.89862 19.3201C1.99598 19.5989 2.17709 19.8409 2.41717 20.0129C2.65725 20.1848 2.94457 20.2784 3.23982 20.2807H4.01711C4.72089 21.8541 5.81793 23.2195 7.20248 24.2454V27.2951C7.19834 27.8399 7.40866 28.3645 7.78797 28.7554C8.16728 29.1463 8.68511 29.3722 9.22953 29.3842H12.2777C12.7648 29.3835 13.2358 29.2099 13.607 28.8944C13.9781 28.5789 14.2254 28.1419 14.3048 27.6611L14.4572 26.7614C15.5078 26.8104 16.5607 26.7439 17.5968 26.5632V27.3256C17.5968 27.8716 17.8136 28.3952 18.1995 28.7812C18.5853 29.1673 19.1087 29.3842 19.6544 29.3842H22.7026C23.1914 29.384 23.6645 29.211 24.0382 28.8957C24.4119 28.5804 24.6622 28.1431 24.7449 27.6611L25.4307 23.5134C26.3723 22.6876 27.1302 21.6732 27.6553 20.5358C28.1804 19.3985 28.4609 18.1635 28.4789 16.9108C28.4741 16.3996 28.4282 15.8897 28.3417 15.3859C28.9674 15.2034 29.5182 14.825 29.9132 14.3063C30.3082 13.7876 30.5266 13.1559 30.5364 12.5039ZM22.6416 22.5223C22.5176 22.6417 22.4326 22.7959 22.3977 22.9645L21.6662 27.3714C21.6481 27.4967 21.5861 27.6116 21.4911 27.6954C21.3962 27.7792 21.2746 27.8265 21.148 27.8288H19.6239C19.5538 27.8288 19.4845 27.815 19.4197 27.7882C19.355 27.7614 19.2962 27.7221 19.2467 27.6725C19.1972 27.6229 19.1579 27.5641 19.1311 27.4994C19.1042 27.4346 19.0904 27.3652 19.0904 27.2951V25.572C19.0881 25.4562 19.0595 25.3425 19.0066 25.2395C18.9538 25.1364 18.8782 25.0468 18.7856 24.9773C18.6568 24.8708 18.4955 24.8116 18.3284 24.8096H18.1303C16.7413 25.1572 15.3024 25.2604 13.878 25.1146L12.7807 24.9468H12.4759C12.2763 24.905 12.0683 24.9434 11.8967 25.0536C11.7207 25.1752 11.6002 25.3616 11.5614 25.572L11.2718 27.4171C11.2453 27.5358 11.1812 27.6428 11.0889 27.7221C11.0425 27.7671 10.9876 27.8023 10.9274 27.8259C10.8672 27.8495 10.803 27.8608 10.7384 27.8593H9.21429C9.07281 27.8593 8.93713 27.8031 8.83709 27.703C8.73706 27.6029 8.68085 27.4672 8.68085 27.3256V23.8489C8.68027 23.7269 8.651 23.6067 8.5954 23.4981C8.53979 23.3895 8.45943 23.2955 8.36079 23.2237C6.92156 22.2638 5.81844 20.8775 5.20591 19.2591C5.15266 19.1117 5.05533 18.9843 4.92716 18.8943C4.79898 18.8043 4.6462 18.7559 4.48958 18.7559L3.30079 18.8321L2.38633 16.1026L4.62675 15.3554C4.73925 15.3212 4.84275 15.2625 4.92974 15.1834C5.01673 15.1042 5.08503 15.0067 5.12971 14.8979C5.47241 13.7636 6.06629 12.7212 6.86718 11.8482C7.00585 11.7083 7.08366 11.5192 7.08366 11.3221C7.08366 11.1251 7.00585 10.936 6.86718 10.796L5.02302 8.95095L9.59531 9.72863C9.7455 9.76547 9.90236 9.76547 10.0525 9.72863C11.64 9.0008 13.3664 8.62621 15.1125 8.63073C15.5609 8.63793 16.0086 8.66847 16.4538 8.72222H16.911C17.3225 8.72222 17.7188 8.87471 18.115 8.9662L18.557 9.08819C18.9533 9.21018 19.3495 9.33217 19.7153 9.48466L20.0506 9.63714C20.3707 9.77438 20.6755 9.94212 20.9803 10.1099L21.4528 10.3843L22.0015 10.7503L22.4435 11.1163L22.733 11.3602L23.1445 11.7567C23.2335 11.8356 23.3151 11.9223 23.3884 12.0159C23.5233 12.151 23.6505 12.2935 23.7694 12.4429L23.9523 12.7021C24.1493 12.9774 24.3325 13.2624 24.501 13.5561L24.6839 13.8915C24.6839 14.0135 24.8058 14.166 24.8668 14.3032C24.9318 14.447 24.9878 14.5947 25.0344 14.7455C25.0344 14.8674 25.1106 15.0047 25.1564 15.1267C25.2021 15.2487 25.2478 15.5079 25.2783 15.6909C25.3088 15.8739 25.2783 15.9044 25.2783 16.0111V16.926C25.2608 17.9926 25.0166 19.0432 24.562 20.0081C24.1074 20.973 23.4528 21.83 22.6416 22.5223Z" fill="#3260E7"/>
</g>
</g>
</svg>
