<svg width="47" height="47" viewBox="0 0 47 47" fill="none" xmlns="http://www.w3.org/2000/svg">
<g id="Group 45">
<g id="Union">
<path d="M37 2H44V45H37V2Z" fill="white"/>
<path d="M23 16H30V45H23V16Z" fill="white"/>
<path d="M16 28H9V45H16V28Z" fill="white"/>
</g>
<path id="Vector" d="M45.12 0H36.425C36.1134 0 35.8145 0.123795 35.5941 0.34415C35.3738 0.564505 35.25 0.863371 35.25 1.175V18.8C35.25 19.1116 35.3738 19.4105 35.5941 19.6308C35.8145 19.8512 36.1134 19.975 36.425 19.975C36.7366 19.975 37.0355 19.8512 37.2559 19.6308C37.4762 19.4105 37.6 19.1116 37.6 18.8V2.35H42.3V44.65H37.6V24.675C37.6 24.3634 37.4762 24.0645 37.2559 23.8441C37.0355 23.6238 36.7366 23.5 36.425 23.5C36.1134 23.5 35.8145 23.6238 35.5941 23.8441C35.3738 24.0645 35.25 24.3634 35.25 24.675V44.65H32.9V15.98C32.9 15.4814 32.7019 15.0032 32.3494 14.6506C31.9968 14.2981 31.5186 14.1 31.02 14.1H22.325C22.0134 14.1 21.7145 14.2238 21.4941 14.4441C21.2738 14.6645 21.15 14.9634 21.15 15.275V44.65H18.8V27.73C18.8 27.2314 18.6019 26.7532 18.2494 26.4006C17.8968 26.0481 17.4186 25.85 16.92 25.85H8.225C7.91337 25.85 7.6145 25.9738 7.39415 26.1941C7.17379 26.4145 7.05 26.7134 7.05 27.025V40.091C7.05 40.4026 7.17379 40.7015 7.39415 40.9218C7.6145 41.1422 7.91337 41.266 8.225 41.266C8.53663 41.266 8.83549 41.1422 9.05585 40.9218C9.27621 40.7015 9.4 40.4026 9.4 40.091V28.2H14.1V44.65H2.35V37.6H3.525C3.83663 37.6 4.13549 37.4762 4.35585 37.2559C4.57621 37.0355 4.7 36.7366 4.7 36.425C4.7 36.1134 4.57621 35.8145 4.35585 35.5941C4.13549 35.3738 3.83663 35.25 3.525 35.25H2.35V28.2H3.525C3.83663 28.2 4.13549 28.0762 4.35585 27.8559C4.57621 27.6355 4.7 27.3366 4.7 27.025C4.7 26.7134 4.57621 26.4145 4.35585 26.1941C4.13549 25.9738 3.83663 25.85 3.525 25.85H2.35V18.8H3.525C3.83663 18.8 4.13549 18.6762 4.35585 18.4559C4.57621 18.2355 4.7 17.9366 4.7 17.625C4.7 17.3134 4.57621 17.0145 4.35585 16.7941C4.13549 16.5738 3.83663 16.45 3.525 16.45H2.35V9.4H3.525C3.83663 9.4 4.13549 9.27621 4.35585 9.05585C4.57621 8.83549 4.7 8.53663 4.7 8.225C4.7 7.91337 4.57621 7.6145 4.35585 7.39415C4.13549 7.17379 3.83663 7.05 3.525 7.05H2.35V1.175C2.35 0.863371 2.22621 0.564505 2.00585 0.34415C1.78549 0.123795 1.48663 0 1.175 0C0.863371 0 0.564505 0.123795 0.34415 0.34415C0.123795 0.564505 0 0.863371 0 1.175V45.825C0 46.1366 0.123795 46.4355 0.34415 46.6558C0.564505 46.8762 0.863371 47 1.175 47H45.825C46.1366 47 46.4355 46.8762 46.6558 46.6558C46.8762 46.4355 47 46.1366 47 45.825V1.88C47 1.38139 46.8019 0.903208 46.4494 0.550639C46.0968 0.198071 45.6186 0 45.12 0ZM28.2 44.65H23.5V16.45H28.2V44.65Z" fill="#3260E7"/>
</g>
</svg>
