<svg width="32" height="26" viewBox="0 0 32 26" fill="none" xmlns="http://www.w3.org/2000/svg">
<g id="Group 698">
<rect id="Rectangle 249" x="1.15527" y="1.49219" width="27.8351" height="19.7938" rx="2.47423" fill="white"/>
<path id="Vector" d="M7.75263 10.1184C7.57035 10.1184 7.39553 10.1926 7.26664 10.3247C7.13775 10.4568 7.06534 10.636 7.06534 10.8229V15.0497C7.06534 15.2365 7.13775 15.4157 7.26664 15.5478C7.39553 15.6799 7.57035 15.7541 7.75263 15.7541C7.93491 15.7541 8.10972 15.6799 8.23861 15.5478C8.3675 15.4157 8.43991 15.2365 8.43991 15.0497V10.8229C8.43991 10.636 8.3675 10.4568 8.23861 10.3247C8.10972 10.1926 7.93491 10.1184 7.75263 10.1184ZM7.75263 7.30053C7.61669 7.30053 7.48382 7.34185 7.37079 7.41926C7.25777 7.49666 7.16968 7.60669 7.11766 7.73541C7.06564 7.86414 7.05203 8.00578 7.07855 8.14244C7.10507 8.27909 7.17052 8.40461 7.26664 8.50313C7.36276 8.60166 7.48522 8.66875 7.61854 8.69593C7.75186 8.72311 7.89006 8.70916 8.01564 8.65584C8.14122 8.60252 8.24856 8.51223 8.32408 8.39638C8.3996 8.28053 8.43991 8.14433 8.43991 8.005C8.43991 7.81816 8.3675 7.63898 8.23861 7.50687C8.10972 7.37475 7.93491 7.30053 7.75263 7.30053ZM19.2303 7.51187C19.1686 7.44448 19.0941 7.39077 19.0113 7.35405C18.9286 7.31734 18.8394 7.29839 18.7492 7.29839C18.659 7.29839 18.5698 7.31734 18.4871 7.35405C18.4043 7.39077 18.3298 7.44448 18.2681 7.51187L17.3746 8.46995C16.7776 8.05746 16.074 7.83709 15.354 7.83709C14.634 7.83709 13.9304 8.05746 13.3334 8.46995L12.3987 7.51187C12.2711 7.38109 12.098 7.30761 11.9176 7.30761C11.7371 7.30761 11.5641 7.38109 11.4365 7.51187C11.3089 7.64266 11.2372 7.82004 11.2372 8.005C11.2372 8.18996 11.3089 8.36734 11.4365 8.49813L12.3712 9.4562C11.9688 10.0682 11.7538 10.7893 11.7538 11.5273C11.7538 12.2653 11.9688 12.9865 12.3712 13.5985L11.4365 14.5565C11.3707 14.6198 11.3183 14.6962 11.2825 14.781C11.2467 14.8658 11.2282 14.9573 11.2282 15.0497C11.2282 15.1421 11.2467 15.2335 11.2825 15.3184C11.3183 15.4032 11.3707 15.4796 11.4365 15.5428C11.4982 15.6102 11.5727 15.6639 11.6555 15.7006C11.7382 15.7373 11.8274 15.7563 11.9176 15.7563C12.0077 15.7563 12.097 15.7373 12.1797 15.7006C12.2624 15.6639 12.337 15.6102 12.3987 15.5428L13.3334 14.5847C13.9304 14.9972 14.634 15.2176 15.354 15.2176C16.074 15.2176 16.7776 14.9972 17.3746 14.5847L18.3093 15.5428C18.371 15.6102 18.4456 15.6639 18.5283 15.7006C18.611 15.7373 18.7003 15.7563 18.7904 15.7563C18.8806 15.7563 18.9698 15.7373 19.0526 15.7006C19.1353 15.6639 19.2098 15.6102 19.2715 15.5428C19.3373 15.4796 19.3897 15.4032 19.4255 15.3184C19.4613 15.2335 19.4798 15.1421 19.4798 15.0497C19.4798 14.9573 19.4613 14.8658 19.4255 14.781C19.3897 14.6962 19.3373 14.6198 19.2715 14.5565L18.3368 13.5985C18.7393 12.9865 18.9542 12.2653 18.9542 11.5273C18.9542 10.7893 18.7393 10.0682 18.3368 9.4562L19.2715 8.49813C19.3347 8.43204 19.384 8.35336 19.4163 8.26696C19.4486 8.18056 19.4633 8.08829 19.4595 7.99584C19.4556 7.90339 19.4333 7.81274 19.3938 7.72949C19.3544 7.64625 19.2988 7.57218 19.2303 7.51187ZM15.3128 13.8098C14.8723 13.8098 14.4418 13.6759 14.0756 13.4251C13.7094 13.1743 13.424 12.8179 13.2555 12.4008C13.0869 11.9837 13.0428 11.5248 13.1287 11.082C13.2147 10.6393 13.4268 10.2326 13.7382 9.91338C14.0496 9.59418 14.4464 9.37679 14.8783 9.28872C15.3103 9.20065 15.758 9.24585 16.1649 9.41861C16.5718 9.59136 16.9196 9.88391 17.1643 10.2593C17.409 10.6346 17.5396 11.0759 17.5396 11.5273C17.536 12.1315 17.3002 12.71 16.8834 13.1372C16.4665 13.5645 15.9022 13.8061 15.3128 13.8098ZM29.4021 12.9363V10.1184C29.9489 10.1184 30.4734 9.89574 30.8601 9.4994C31.2467 9.10306 31.464 8.56551 31.464 8.005C31.464 7.44449 31.2467 6.90694 30.8601 6.5106C30.4734 6.11426 29.9489 5.8916 29.4021 5.8916V3.7782C29.4021 3.31564 29.3132 2.85761 29.1405 2.43026C28.9678 2.00291 28.7147 1.61461 28.3956 1.28753C28.0765 0.960449 27.6977 0.700995 27.2807 0.523981C26.8638 0.346967 26.417 0.255859 25.9657 0.255859H3.97256C3.06116 0.255859 2.18709 0.626962 1.54264 1.28753C0.898184 1.94809 0.536133 2.84401 0.536133 3.7782V19.2765C0.536133 20.2107 0.898184 21.1066 1.54264 21.7671C2.18709 22.4277 3.06116 22.7988 3.97256 22.7988H8.09627V24.2078H5.34713C5.32908 24.1152 5.29343 24.0273 5.24221 23.9489C5.19099 23.8705 5.12522 23.8032 5.04863 23.7509C4.97205 23.6985 4.88616 23.6622 4.79586 23.6439C4.70557 23.6256 4.61264 23.6257 4.52239 23.6442C4.43213 23.6627 4.34632 23.6992 4.26984 23.7517C4.19336 23.8042 4.12772 23.8716 4.07666 23.9501C4.02561 24.0286 3.99013 24.1167 3.97227 24.2092C3.95441 24.3018 3.95451 24.397 3.97256 24.4895C3.97256 24.7885 4.08842 25.0752 4.29464 25.2866C4.50087 25.4979 4.78057 25.6167 5.07222 25.6167H9.74575C10.0374 25.6167 10.3171 25.4979 10.5233 25.2866C10.7296 25.0752 10.8454 24.7885 10.8454 24.4895V22.7988H19.0928V24.9122C19.0928 25.0991 19.1652 25.2782 19.2941 25.4104C19.423 25.5425 19.5978 25.6167 19.7801 25.6167H24.866C25.1577 25.6167 25.4374 25.4979 25.6436 25.2866C25.8498 25.0752 25.9657 24.7885 25.9657 24.4895V22.7988C26.417 22.7988 26.8638 22.7077 27.2807 22.5307C27.6977 22.3537 28.0765 22.0942 28.3956 21.7671C28.7147 21.4401 28.9678 21.0518 29.1405 20.6244C29.3132 20.1971 29.4021 19.739 29.4021 19.2765V17.1631C29.9489 17.1631 30.4734 16.9404 30.8601 16.5441C31.2467 16.1477 31.464 15.6102 31.464 15.0497C31.464 14.4892 31.2467 13.9516 30.8601 13.5553C30.4734 13.1589 29.9489 12.9363 29.4021 12.9363ZM23.2165 24.2078H20.4674V22.7988H23.2165V24.2078ZM26.653 19.2765C26.653 19.837 26.4357 20.3745 26.0491 20.7709C25.6624 21.1672 25.138 21.3899 24.5911 21.3899H3.97256C3.42572 21.3899 2.90128 21.1672 2.51461 20.7709C2.12793 20.3745 1.9107 19.837 1.9107 19.2765V3.7782C1.9107 3.21769 2.12793 2.68013 2.51461 2.28379C2.90128 1.88746 3.42572 1.66479 3.97256 1.66479H24.5911C25.138 1.66479 25.6624 1.88746 26.0491 2.28379C26.4357 2.68013 26.653 3.21769 26.653 3.7782V5.8916H25.622V4.22906C25.6151 3.9249 25.4941 3.63517 25.2842 3.42004C25.0743 3.20491 24.7916 3.08089 24.4949 3.07373H4.41242C4.11568 3.08089 3.83303 3.20491 3.62314 3.42004C3.41325 3.63517 3.29226 3.9249 3.28527 4.22906V18.8256C3.29226 19.1298 3.41325 19.4195 3.62314 19.6346C3.83303 19.8498 4.11568 19.9738 4.41242 19.9809H17.8282C18.0105 19.9809 18.1853 19.9067 18.3142 19.7746C18.4431 19.6425 18.5155 19.4633 18.5155 19.2765C18.5155 19.0896 18.4431 18.9105 18.3142 18.7783C18.1853 18.6462 18.0105 18.572 17.8282 18.572H4.65984V4.48266H24.2475V5.8916H23.9038C23.357 5.8916 22.8326 6.11426 22.4459 6.5106C22.0592 6.90694 21.842 7.44449 21.842 8.005C21.842 8.56551 22.0592 9.10306 22.4459 9.4994C22.8326 9.89574 23.357 10.1184 23.9038 10.1184H24.2475V12.9363H23.9038C23.357 12.9363 22.8326 13.1589 22.4459 13.5553C22.0592 13.9516 21.842 14.4892 21.842 15.0497C21.842 15.6102 22.0592 16.1477 22.4459 16.5441C22.8326 16.9404 23.357 17.1631 23.9038 17.1631H24.2475V18.572H20.8385C20.6563 18.572 20.4814 18.6462 20.3526 18.7783C20.2237 18.9105 20.1513 19.0896 20.1513 19.2765C20.1513 19.4633 20.2237 19.6425 20.3526 19.7746C20.4814 19.9067 20.6563 19.9809 20.8385 19.9809H24.4949C24.7916 19.9738 25.0743 19.8498 25.2842 19.6346C25.4941 19.4195 25.6151 19.1298 25.622 18.8256V17.1631H26.653V19.2765ZM28.0275 15.7541H23.9038C23.7215 15.7541 23.5467 15.6799 23.4178 15.5478C23.289 15.4157 23.2165 15.2365 23.2165 15.0497C23.2165 14.8628 23.289 14.6837 23.4178 14.5515C23.5467 14.4194 23.7215 14.3452 23.9038 14.3452H28.0275C28.2098 14.3452 28.3846 14.4194 28.5135 14.5515C28.6424 14.6837 28.7148 14.8628 28.7148 15.0497C28.7148 15.2365 28.6424 15.4157 28.5135 15.5478C28.3846 15.6799 28.2098 15.7541 28.0275 15.7541ZM25.622 12.9363V10.1184H26.653V12.9363H25.622ZM28.0275 8.70947H23.9038C23.7215 8.70947 23.5467 8.63525 23.4178 8.50313C23.289 8.37102 23.2165 8.19184 23.2165 8.005C23.2165 7.81816 23.289 7.63898 23.4178 7.50687C23.5467 7.37475 23.7215 7.30053 23.9038 7.30053H28.0275C28.2098 7.30053 28.3846 7.37475 28.5135 7.50687C28.6424 7.63898 28.7148 7.81816 28.7148 8.005C28.7148 8.19184 28.6424 8.37102 28.5135 8.50313C28.3846 8.63525 28.2098 8.70947 28.0275 8.70947Z" fill="#3260E7"/>
</g>
</svg>
