<svg width="51" height="41" viewBox="0 0 51 41" fill="none" xmlns="http://www.w3.org/2000/svg">
<g id="Group 698">
<rect id="Rectangle 249" x="1.5" y="2" width="45" height="32" rx="4" fill="white"/>
<path id="Vector" d="M12.1667 15.9444C11.872 15.9444 11.5894 16.0644 11.381 16.278C11.1726 16.4916 11.0556 16.7813 11.0556 17.0833V23.9167C11.0556 24.2187 11.1726 24.5084 11.381 24.722C11.5894 24.9356 11.872 25.0556 12.1667 25.0556C12.4614 25.0556 12.744 24.9356 12.9523 24.722C13.1607 24.5084 13.2778 24.2187 13.2778 23.9167V17.0833C13.2778 16.7813 13.1607 16.4916 12.9523 16.278C12.744 16.0644 12.4614 15.9444 12.1667 15.9444ZM12.1667 11.3889C11.9469 11.3889 11.7321 11.4557 11.5494 11.5808C11.3666 11.706 11.2242 11.8838 11.1401 12.0919C11.056 12.3 11.034 12.529 11.0769 12.75C11.1198 12.9709 11.2256 13.1738 11.381 13.3331C11.5364 13.4924 11.7344 13.6008 11.9499 13.6448C12.1654 13.6887 12.3888 13.6662 12.5919 13.58C12.7949 13.4938 12.9684 13.3478 13.0905 13.1605C13.2126 12.9732 13.2778 12.753 13.2778 12.5278C13.2778 12.2257 13.1607 11.936 12.9523 11.7225C12.744 11.5089 12.4614 11.3889 12.1667 11.3889ZM30.7222 11.7306C30.6225 11.6216 30.502 11.5348 30.3682 11.4754C30.2344 11.4161 30.0902 11.3854 29.9444 11.3854C29.7987 11.3854 29.6545 11.4161 29.5207 11.4754C29.3869 11.5348 29.2664 11.6216 29.1667 11.7306L27.7222 13.2794C26.757 12.6126 25.6195 12.2563 24.4556 12.2563C23.2916 12.2563 22.1541 12.6126 21.1889 13.2794L19.6778 11.7306C19.4715 11.5191 19.1917 11.4003 18.9 11.4003C18.6083 11.4003 18.3285 11.5191 18.1222 11.7306C17.9159 11.942 17.8001 12.2288 17.8001 12.5278C17.8001 12.8268 17.9159 13.1136 18.1222 13.325L19.6333 14.8739C18.9827 15.8632 18.6352 17.0291 18.6352 18.2222C18.6352 19.4153 18.9827 20.5812 19.6333 21.5706L18.1222 23.1194C18.0159 23.2217 17.9312 23.3452 17.8733 23.4823C17.8154 23.6194 17.7855 23.7673 17.7855 23.9167C17.7855 24.0661 17.8154 24.2139 17.8733 24.351C17.9312 24.4881 18.0159 24.6116 18.1222 24.7139C18.222 24.8228 18.3425 24.9097 18.4762 24.969C18.61 25.0284 18.7542 25.059 18.9 25.059C19.0458 25.059 19.19 25.0284 19.3238 24.969C19.4575 24.9097 19.578 24.8228 19.6778 24.7139L21.1889 23.165C22.1541 23.8319 23.2916 24.1881 24.4556 24.1881C25.6195 24.1881 26.757 23.8319 27.7222 23.165L29.2333 24.7139C29.3331 24.8228 29.4536 24.9097 29.5873 24.969C29.7211 25.0284 29.8653 25.059 30.0111 25.059C30.1569 25.059 30.3011 25.0284 30.4349 24.969C30.5687 24.9097 30.6891 24.8228 30.7889 24.7139C30.8952 24.6116 30.9799 24.4881 31.0378 24.351C31.0957 24.2139 31.1256 24.0661 31.1256 23.9167C31.1256 23.7673 31.0957 23.6194 31.0378 23.4823C30.9799 23.3452 30.8952 23.2217 30.7889 23.1194L29.2778 21.5706C29.9284 20.5812 30.2759 19.4153 30.2759 18.2222C30.2759 17.0291 29.9284 15.8632 29.2778 14.8739L30.7889 13.325C30.891 13.2182 30.9707 13.091 31.023 12.9513C31.0752 12.8116 31.099 12.6624 31.0927 12.513C31.0865 12.3635 31.0504 12.217 30.9866 12.0824C30.9229 11.9478 30.8329 11.8281 30.7222 11.7306ZM24.3889 21.9122C23.6769 21.9122 22.9809 21.6958 22.3888 21.2903C21.7968 20.8849 21.3354 20.3086 21.0629 19.6343C20.7904 18.9601 20.7192 18.2181 20.8581 17.5023C20.997 16.7865 21.3398 16.1291 21.8433 15.613C22.3468 15.0969 22.9882 14.7455 23.6866 14.6031C24.3849 14.4607 25.1087 14.5338 25.7666 14.8131C26.4244 15.0924 26.9866 15.5654 27.3822 16.1722C27.7778 16.779 27.9889 17.4924 27.9889 18.2222C27.9831 19.199 27.6019 20.1341 26.928 20.8248C26.2542 21.5156 25.3419 21.9062 24.3889 21.9122ZM47.1667 20.5V15.9444C48.0507 15.9444 48.8986 15.5845 49.5237 14.9437C50.1488 14.303 50.5 13.4339 50.5 12.5278C50.5 11.6216 50.1488 10.7526 49.5237 10.1118C48.8986 9.47108 48.0507 9.11111 47.1667 9.11111V5.69444C47.1667 4.94664 47.023 4.20616 46.7438 3.51528C46.4646 2.82439 46.0554 2.19664 45.5395 1.66786C45.0236 1.13909 44.4112 0.719636 43.7371 0.433464C43.0631 0.147291 42.3407 0 41.6111 0H6.05556C4.58213 0 3.16905 0.599949 2.12718 1.66786C1.08532 2.73578 0.5 4.18418 0.5 5.69444V30.75C0.5 32.2603 1.08532 33.7087 2.12718 34.7766C3.16905 35.8445 4.58213 36.4444 6.05556 36.4444H12.7222V38.7222H8.27778C8.2486 38.5727 8.19096 38.4305 8.10816 38.3037C8.02536 38.177 7.91902 38.0682 7.79521 37.9836C7.67139 37.899 7.53254 37.8402 7.38656 37.8106C7.24059 37.781 7.09036 37.7812 6.94445 37.8111C6.79853 37.841 6.6598 37.9001 6.53616 37.985C6.41252 38.0698 6.3064 38.1788 6.22386 38.3057C6.14132 38.4327 6.08397 38.575 6.05509 38.7246C6.02622 38.8742 6.02637 39.0282 6.05556 39.1778C6.05556 39.6611 6.24286 40.1245 6.57626 40.4663C6.90965 40.808 7.36184 41 7.83333 41H15.3889C15.8604 41 16.3126 40.808 16.646 40.4663C16.9794 40.1245 17.1667 39.6611 17.1667 39.1778V36.4444H30.5V39.8611C30.5 40.1632 30.6171 40.4528 30.8254 40.6664C31.0338 40.88 31.3164 41 31.6111 41H39.8333C40.3048 41 40.757 40.808 41.0904 40.4663C41.4238 40.1245 41.6111 39.6611 41.6111 39.1778V36.4444C42.3407 36.4444 43.0631 36.2971 43.7371 36.011C44.4112 35.7248 45.0236 35.3054 45.5395 34.7766C46.0554 34.2478 46.4646 33.6201 46.7438 32.9292C47.023 32.2383 47.1667 31.4978 47.1667 30.75V27.3333C48.0507 27.3333 48.8986 26.9734 49.5237 26.3326C50.1488 25.6919 50.5 24.8228 50.5 23.9167C50.5 23.0105 50.1488 22.1415 49.5237 21.5007C48.8986 20.86 48.0507 20.5 47.1667 20.5ZM37.1667 38.7222H32.7222V36.4444H37.1667V38.7222ZM42.7222 30.75C42.7222 31.6562 42.371 32.5252 41.7459 33.1659C41.1208 33.8067 40.2729 34.1667 39.3889 34.1667H6.05556C5.1715 34.1667 4.32365 33.8067 3.69853 33.1659C3.07341 32.5252 2.72222 31.6562 2.72222 30.75V5.69444C2.72222 4.78829 3.07341 3.91925 3.69853 3.2785C4.32365 2.63775 5.1715 2.27778 6.05556 2.27778H39.3889C40.2729 2.27778 41.1208 2.63775 41.7459 3.2785C42.371 3.91925 42.7222 4.78829 42.7222 5.69444V9.11111H41.0556V6.42333C41.0443 5.93161 40.8487 5.46323 40.5093 5.11543C40.17 4.76763 39.7131 4.56713 39.2333 4.55556H6.76667C6.28693 4.56713 5.82998 4.76763 5.49066 5.11543C5.15135 5.46323 4.95574 5.93161 4.94444 6.42333V30.0211C4.95574 30.5128 5.15135 30.9812 5.49066 31.329C5.82998 31.6768 6.28693 31.8773 6.76667 31.8889H28.4556C28.7502 31.8889 29.0329 31.7689 29.2412 31.5553C29.4496 31.3417 29.5667 31.0521 29.5667 30.75C29.5667 30.4479 29.4496 30.1583 29.2412 29.9447C29.0329 29.7311 28.7502 29.6111 28.4556 29.6111H7.16667V6.83333H38.8333V9.11111H38.2778C37.3937 9.11111 36.5459 9.47108 35.9208 10.1118C35.2956 10.7526 34.9444 11.6216 34.9444 12.5278C34.9444 13.4339 35.2956 14.303 35.9208 14.9437C36.5459 15.5845 37.3937 15.9444 38.2778 15.9444H38.8333V20.5H38.2778C37.3937 20.5 36.5459 20.86 35.9208 21.5007C35.2956 22.1415 34.9444 23.0105 34.9444 23.9167C34.9444 24.8228 35.2956 25.6919 35.9208 26.3326C36.5459 26.9734 37.3937 27.3333 38.2778 27.3333H38.8333V29.6111H33.3222C33.0275 29.6111 32.7449 29.7311 32.5365 29.9447C32.3282 30.1583 32.2111 30.4479 32.2111 30.75C32.2111 31.0521 32.3282 31.3417 32.5365 31.5553C32.7449 31.7689 33.0275 31.8889 33.3222 31.8889H39.2333C39.7131 31.8773 40.17 31.6768 40.5093 31.329C40.8487 30.9812 41.0443 30.5128 41.0556 30.0211V27.3333H42.7222V30.75ZM44.9444 25.0556H38.2778C37.9831 25.0556 37.7005 24.9356 37.4921 24.722C37.2837 24.5084 37.1667 24.2187 37.1667 23.9167C37.1667 23.6146 37.2837 23.3249 37.4921 23.1113C37.7005 22.8978 37.9831 22.7778 38.2778 22.7778H44.9444C45.2391 22.7778 45.5217 22.8978 45.7301 23.1113C45.9385 23.3249 46.0556 23.6146 46.0556 23.9167C46.0556 24.2187 45.9385 24.5084 45.7301 24.722C45.5217 24.9356 45.2391 25.0556 44.9444 25.0556ZM41.0556 20.5V15.9444H42.7222V20.5H41.0556ZM44.9444 13.6667H38.2778C37.9831 13.6667 37.7005 13.5467 37.4921 13.3331C37.2837 13.1195 37.1667 12.8298 37.1667 12.5278C37.1667 12.2257 37.2837 11.936 37.4921 11.7225C37.7005 11.5089 37.9831 11.3889 38.2778 11.3889H44.9444C45.2391 11.3889 45.5217 11.5089 45.7301 11.7225C45.9385 11.936 46.0556 12.2257 46.0556 12.5278C46.0556 12.8298 45.9385 13.1195 45.7301 13.3331C45.5217 13.5467 45.2391 13.6667 44.9444 13.6667Z" fill="#3260E7"/>
</g>
</svg>
