<svg width="32" height="30" viewBox="0 0 32 30" fill="none" xmlns="http://www.w3.org/2000/svg">
<g id="Group 45">
<g id="Union">
<path d="M15.3821 9.36838C16.7486 9.36838 17.8563 8.26063 17.8563 6.89415C17.8563 5.52767 16.7486 4.41992 15.3821 4.41992C14.0156 4.41992 12.9079 5.52767 12.9079 6.89415C12.9079 8.26063 14.0156 9.36838 15.3821 9.36838Z" fill="white"/>
<path d="M4.86661 24.2137C6.91633 24.2137 8.57795 22.5521 8.57795 20.5024C8.57795 19.5746 4.86661 19.8838 4.86661 19.8838C4.86661 19.8838 1.15527 19.8838 1.15527 20.5024C1.15527 22.5521 2.8169 24.2137 4.86661 24.2137Z" fill="white"/>
<path d="M25.8975 24.2137C27.9473 24.2137 29.6089 22.5521 29.6089 20.5024C29.6089 19.5746 25.8975 19.8838 25.8975 19.8838C25.8975 19.8838 22.1862 19.8838 22.1862 20.5024C22.1862 22.5521 23.8478 24.2137 25.8975 24.2137Z" fill="white"/>
<path d="M20.3305 28.5436H10.7429C10.7429 27.6053 11.9477 26.4075 12.512 25.8464L12.5129 25.8455C12.5434 25.8151 12.5721 25.7866 12.5986 25.7601H17.2377C18.9697 25.7601 20.0213 27.6158 20.3305 28.5436Z" fill="white"/>
</g>
<path id="Vector" d="M31.4539 19.6732L27.9411 9.71449C27.8962 9.62682 27.834 9.54936 27.7585 9.48686C27.9054 9.19109 27.9824 8.86476 27.9833 8.53367C27.9833 8.34502 27.9093 8.16409 27.7775 8.03068C27.6457 7.89728 27.467 7.82234 27.2807 7.82234C27.0944 7.82234 26.9157 7.89728 26.7839 8.03068C26.6522 8.16409 26.5781 8.34502 26.5781 8.53367C26.5781 8.72233 26.5041 8.90326 26.3724 9.03666C26.2406 9.17007 26.0619 9.24501 25.8756 9.24501C25.6892 9.24501 25.5105 9.17007 25.3788 9.03666C25.247 8.90326 25.173 8.72233 25.173 8.53367C25.1731 8.2498 25.1172 7.96878 25.0086 7.70705C24.9001 7.44531 24.7411 7.20814 24.5408 7.00941C24.3406 6.81068 24.1033 6.65439 23.8427 6.54969C23.5821 6.44499 23.3035 6.39399 23.0232 6.39967H20.2129C20.0248 5.53915 19.5231 4.78214 18.8078 4.27989V2.85722C18.8046 2.51753 18.7214 2.18352 18.565 1.88296C18.4087 1.58239 18.1837 1.32397 17.9088 1.12916C17.634 0.934353 17.3172 0.808798 16.9847 0.762936C16.6523 0.717074 16.3138 0.752229 15.9975 0.865478C15.7734 0.774496 15.536 0.72162 15.2949 0.708984C14.7359 0.708984 14.1998 0.933817 13.8046 1.33402C13.4093 1.73422 13.1872 2.27702 13.1872 2.84299V4.26566C12.4954 4.78394 12.0194 5.54489 11.8524 6.39967H7.56672C7.00773 6.39967 6.47162 6.6245 6.07636 7.0247C5.68109 7.42491 5.45903 7.9677 5.45903 8.53367C5.45903 8.72233 5.38501 8.90326 5.25325 9.03666C5.12149 9.17007 4.94279 9.24501 4.75646 9.24501C4.57013 9.24501 4.39143 9.17007 4.25967 9.03666C4.12792 8.90326 4.05389 8.72233 4.05389 8.53367C4.05389 8.34502 3.97987 8.16409 3.84812 8.03068C3.71636 7.89728 3.53766 7.82234 3.35133 7.82234C3.165 7.82234 2.9863 7.89728 2.85454 8.03068C2.72278 8.16409 2.64876 8.34502 2.64876 8.53367C2.634 9.01924 2.7833 9.49538 3.072 9.8834C3.3607 10.2714 3.77152 10.5481 4.23656 10.6677L7.27164 19.2037H2.24128L4.16631 13.7549C4.22362 13.579 4.21096 13.3875 4.131 13.2209C4.05104 13.0544 3.91009 12.926 3.7381 12.863C3.56612 12.8 3.37665 12.8074 3.20997 12.8837C3.04329 12.9599 2.91253 13.0989 2.84548 13.2712L0.541069 19.6732C0.535034 19.7109 0.535034 19.7493 0.541069 19.787C0.534488 19.8294 0.534488 19.8726 0.541069 19.915V20.6264C0.541069 21.7583 0.985189 22.8439 1.77573 23.6443C2.56627 24.4447 3.63847 24.8944 4.75646 24.8944C5.87445 24.8944 6.94665 24.4447 7.73719 23.6443C8.52773 22.8439 8.97185 21.7583 8.97185 20.6264V19.915C8.97843 19.8726 8.97843 19.8294 8.97185 19.787C8.97789 19.7493 8.97789 19.7109 8.97185 19.6732L5.6698 10.4401C6.02604 10.2685 6.32717 9.99852 6.53848 9.66124C6.74979 9.32396 6.86269 8.93309 6.86416 8.53367C6.86416 8.34502 6.93818 8.16409 7.06993 8.03068C7.20169 7.89728 7.38039 7.82234 7.56672 7.82234H11.8524C12.0227 8.67194 12.4983 9.42731 13.1872 9.94212V22.049C13.1872 22.2377 13.2613 22.4186 13.393 22.552C13.5248 22.6854 13.7035 22.7604 13.8898 22.7604C14.0761 22.7604 14.2548 22.6854 14.3866 22.552C14.5184 22.4186 14.5924 22.2377 14.5924 22.049V10.6677C15.056 10.7627 15.5338 10.7627 15.9975 10.6677V24.8944H13.5245C12.8711 24.8914 12.23 25.0738 11.6737 25.4208C11.1174 25.7678 10.6682 26.2655 10.377 26.8577L9.74467 28.1381C9.68932 28.2432 9.66037 28.3604 9.66037 28.4795C9.66037 28.5986 9.68932 28.7159 9.74467 28.821C9.81223 28.9281 9.9059 29.0158 10.0166 29.0756C10.1274 29.1354 10.2515 29.1653 10.377 29.1624H21.618C21.7388 29.1605 21.8571 29.1283 21.9626 29.0687C22.068 29.0091 22.1572 28.924 22.2222 28.821C22.2776 28.7159 22.3065 28.5986 22.3065 28.4795C22.3065 28.3604 22.2776 28.2432 22.2222 28.1381L21.5899 26.8577C21.3308 26.3168 20.9389 25.8523 20.4518 25.5086C19.9647 25.1648 19.3986 24.9534 18.8078 24.8944V9.94212C19.5231 9.43986 20.0248 8.68286 20.2129 7.82234H23.0232C23.2095 7.82234 23.3882 7.89728 23.5199 8.03068C23.6517 8.16409 23.7257 8.34502 23.7257 8.53367C23.7272 8.93309 23.8401 9.32396 24.0514 9.66124C24.2627 9.99852 24.5638 10.2685 24.9201 10.4401L21.618 19.6732C21.612 19.7109 21.612 19.7493 21.618 19.787C21.6114 19.8294 21.6114 19.8726 21.618 19.915V20.6264C21.618 21.7583 22.0621 22.8439 22.8527 23.6443C23.6432 24.4447 24.7154 24.8944 25.8334 24.8944C26.0693 24.8926 26.3045 24.8688 26.536 24.8233C26.7676 24.868 27.0027 24.8918 27.2386 24.8944C28.3565 24.8944 29.4287 24.4447 30.2193 23.6443C31.0098 22.8439 31.4539 21.7583 31.4539 20.6264V19.915C31.4673 19.835 31.4673 19.7532 31.4539 19.6732ZM4.75646 23.4717C4.01113 23.4717 3.29633 23.1719 2.76931 22.6383C2.24228 22.1047 1.9462 21.381 1.9462 20.6264H7.56672C7.56672 21.381 7.27064 22.1047 6.74362 22.6383C6.21659 23.1719 5.50179 23.4717 4.75646 23.4717ZM14.5924 2.84299C14.5924 2.65433 14.6664 2.4734 14.7982 2.34C14.9299 2.2066 15.1086 2.13166 15.2949 2.13166C15.3969 2.11018 15.5021 2.11018 15.6041 2.13166C15.7454 2.22002 15.8579 2.3487 15.9272 2.50155C15.942 2.57669 15.942 2.65404 15.9272 2.72918V3.51165C15.4636 3.41661 14.9858 3.41661 14.5221 3.51165L14.5924 2.84299ZM15.8148 9.24501C15.647 9.2677 15.4769 9.2677 15.309 9.24501C14.75 9.24501 14.2139 9.02018 13.8186 8.61997C13.4234 8.21977 13.2013 7.67698 13.2013 7.111C13.2013 6.54503 13.4234 6.00224 13.8186 5.60203C14.2139 5.20183 14.75 4.977 15.309 4.977C15.4769 4.9543 15.647 4.9543 15.8148 4.977C16.2559 5.10041 16.6485 5.35879 16.9389 5.71679C17.0868 5.92261 17.1963 6.15403 17.2621 6.39967C17.2682 6.42779 17.2682 6.45691 17.2621 6.48503C17.4115 6.89844 17.4115 7.35202 17.2621 7.76543C17.2682 7.79355 17.2682 7.82267 17.2621 7.85079C17.192 8.04977 17.0925 8.23684 16.967 8.40563C16.684 8.80555 16.2793 9.10042 15.8148 9.24501ZM18.9623 27.569L19.0747 27.8109H11.5151L11.6276 27.569C11.7933 27.1992 12.0598 26.885 12.3959 26.6632C12.7319 26.4415 13.1234 26.3214 13.5245 26.3171H17.0654C17.4589 26.315 17.8452 26.4244 18.1805 26.6331C18.5157 26.8418 18.7866 27.1414 18.9623 27.4979V27.569ZM25.8334 12.0904V12.2042L28.3486 19.2037H23.3182L25.8334 12.0904ZM28.6437 21.1812V21.3662C28.6173 21.4724 28.5844 21.577 28.5453 21.6792C28.5453 21.7503 28.4751 21.8072 28.447 21.8783C28.4055 21.9666 28.3586 22.0522 28.3065 22.1344C28.2725 22.2014 28.23 22.2636 28.18 22.3194C28.127 22.4014 28.0658 22.4777 27.9973 22.547L27.8568 22.7035L27.6039 22.9169L27.4493 23.0307L27.1542 23.1872L26.9997 23.2725L26.5781 23.4006H26.4938C26.3071 23.4223 26.1185 23.4223 25.9318 23.4006C25.1865 23.4006 24.4717 23.1008 23.9446 22.5672C23.4176 22.0336 23.1215 21.3099 23.1215 20.5552H28.742C28.7363 20.7627 28.7032 20.9684 28.6437 21.167V21.1812Z" fill="#3260E7"/>
</g>
</svg>
