<svg width="30" height="30" viewBox="0 0 30 30" fill="none" xmlns="http://www.w3.org/2000/svg">
<g id="Group 45">
<g id="Union">
<path d="M23.3499 1.63672H27.6798V28.2347H23.3499V1.63672Z" fill="white"/>
<path d="M14.6901 10.2965H19.02V28.2347H14.6901V10.2965Z" fill="white"/>
<path d="M10.3602 17.7192H6.03027V28.2347H10.3602V17.7192Z" fill="white"/>
</g>
<path id="Vector" d="M28.3731 0.400391H22.9948C22.802 0.400391 22.6172 0.476965 22.4809 0.613267C22.3446 0.749569 22.268 0.934434 22.268 1.12719V12.0293C22.268 12.222 22.3446 12.4069 22.4809 12.5432C22.6172 12.6795 22.802 12.7561 22.9948 12.7561C23.1876 12.7561 23.3724 12.6795 23.5087 12.5432C23.645 12.4069 23.7216 12.222 23.7216 12.0293V1.854H26.6288V28.0189H23.7216V15.6633C23.7216 15.4705 23.645 15.2857 23.5087 15.1493C23.3724 15.013 23.1876 14.9365 22.9948 14.9365C22.802 14.9365 22.6172 15.013 22.4809 15.1493C22.3446 15.2857 22.268 15.4705 22.268 15.6633V28.0189H20.8144V10.2849C20.8144 9.97651 20.6919 9.68073 20.4738 9.46264C20.2557 9.24456 19.9599 9.12204 19.6515 9.12204H14.2731C14.0804 9.12204 13.8955 9.19861 13.7592 9.33492C13.6229 9.47122 13.5463 9.65608 13.5463 9.84884V28.0189H12.0927V17.553C12.0927 17.2446 11.9702 16.9488 11.7521 16.7307C11.534 16.5126 11.2383 16.3901 10.9298 16.3901H5.5515C5.35874 16.3901 5.17387 16.4667 5.03757 16.603C4.90127 16.7393 4.82469 16.9241 4.82469 17.1169V25.1989C4.82469 25.3917 4.90127 25.5766 5.03757 25.7129C5.17387 25.8492 5.35874 25.9258 5.5515 25.9258C5.74426 25.9258 5.92912 25.8492 6.06542 25.7129C6.20173 25.5766 6.2783 25.3917 6.2783 25.1989V17.8437H9.18552V28.0189H1.91748V23.6581H2.64428C2.83704 23.6581 3.02191 23.5816 3.15821 23.4452C3.29451 23.3089 3.37108 23.1241 3.37108 22.9313C3.37108 22.7386 3.29451 22.5537 3.15821 22.4174C3.02191 22.2811 2.83704 22.2045 2.64428 22.2045H1.91748V17.8437H2.64428C2.83704 17.8437 3.02191 17.7671 3.15821 17.6308C3.29451 17.4945 3.37108 17.3096 3.37108 17.1169C3.37108 16.9241 3.29451 16.7393 3.15821 16.603C3.02191 16.4667 2.83704 16.3901 2.64428 16.3901H1.91748V12.0293H2.64428C2.83704 12.0293 3.02191 11.9527 3.15821 11.8164C3.29451 11.6801 3.37108 11.4952 3.37108 11.3025C3.37108 11.1097 3.29451 10.9248 3.15821 10.7885C3.02191 10.6522 2.83704 10.5756 2.64428 10.5756H1.91748V6.21482H2.64428C2.83704 6.21482 3.02191 6.13825 3.15821 6.00195C3.29451 5.86565 3.37108 5.68078 3.37108 5.48802C3.37108 5.29526 3.29451 5.11039 3.15821 4.97409C3.02191 4.83779 2.83704 4.76122 2.64428 4.76122H1.91748V1.12719C1.91748 0.934434 1.8409 0.749569 1.7046 0.613267C1.5683 0.476965 1.38343 0.400391 1.19067 0.400391C0.997911 0.400391 0.813046 0.476965 0.676743 0.613267C0.540441 0.749569 0.463867 0.934434 0.463867 1.12719V28.7458C0.463867 28.9385 0.540441 29.1234 0.676743 29.2597C0.813046 29.396 0.997911 29.4726 1.19067 29.4726H28.8092C29.002 29.4726 29.1869 29.396 29.3232 29.2597C29.4595 29.1234 29.536 28.9385 29.536 28.7458V1.56328C29.536 1.25486 29.4135 0.959076 29.1954 0.740992C28.9773 0.522909 28.6816 0.400391 28.3731 0.400391ZM17.9072 28.0189H15V10.5756H17.9072V28.0189Z" fill="#3260E7"/>
</g>
</svg>
